<?xml version="1.0" encoding="UTF-8" standalone="no" ?>
<!DOCTYPE svg PUBLIC "-//W3C//DTD SVG 1.1//EN" "http://www.w3.org/Graphics/SVG/1.1/DTD/svg11.dtd">
<svg xmlns="http://www.w3.org/2000/svg" xmlns:xlink="http://www.w3.org/1999/xlink" version="1.1" width="180" height="50" viewBox="0 10 178 40" fill="none">
<desc></desc>
<defs>
</defs>
<rect x="0" y="0" width="100%" height="100%" fill="transparent"></rect>
<g transform="matrix(1 0 0 1 540 250)" id="ad667520-86a5-47f3-9387-f15e14ea5767"  >
<rect style="stroke: none; stroke-width: 1; stroke-dasharray: none; stroke-linecap: butt; stroke-dashoffset: 0; stroke-linejoin: miter; stroke-miterlimit: 4; fill: rgb(255,255,255); fill-rule: nonzero; opacity: 1; visibility: hidden;" vector-effect="non-scaling-stroke"  x="-540" y="-250" rx="0" ry="0" width="1080" height="500" />
</g>
<g transform="matrix(Infinity NaN NaN Infinity 0 0)" id="50517d90-ac2f-4287-b3d9-455b4adb3b58"  >
</g>
<g transform="matrix(0.04 0 0 0.03 71.79 25.28)"  >
<g style="" vector-effect="non-scaling-stroke"   >
		<g transform="matrix(1 0 0 1 719.73 192.95)"  >
<path style="stroke: none; stroke-width: 1; stroke-dasharray: none; stroke-linecap: butt; stroke-dashoffset: 0; stroke-linejoin: miter; stroke-miterlimit: 4; fill: rgb(13,152,72); fill-rule: nonzero; opacity: 1;" vector-effect="non-scaling-stroke"  transform=" translate(234.59, -702.36)" d="M 0 0 C 3.35498101 2.47976857 4.74585557 4.06428307 5.8425293 8.10205078 C 6.04785258 13.18451839 4.6177002 16.62295838 2.64453125 21.2421875 C 2.27612122 22.14142944 1.90771118 23.04067139 1.52813721 23.96716309 C 0.30484072 26.94299576 -0.94134994 29.90867335 -2.1875 32.875 C -3.05770724 34.98060705 -3.92624874 37.08690322 -4.79321289 39.19384766 C -6.60752112 43.59738518 -8.43035685 47.99724633 -10.25976562 52.39453125 C -12.87161793 58.67937281 -15.45023234 64.97732095 -18.015625 71.28125 C -18.42174515 72.2791153 -18.8278653 73.27698059 -19.24629211 74.30508423 C -20.06553533 76.31836536 -20.88469334 78.33168116 -21.70376587 80.34503174 C -23.78588922 85.458587 -25.87548888 90.56908369 -27.96484375 95.6796875 C -31.3132539 103.87155755 -34.65984783 112.06416499 -38.00390625 120.2578125 C -38.41688461 121.26966614 -38.82986298 122.28151978 -39.25535583 123.32403564 C -41.32543282 128.39622809 -43.39517834 133.46855561 -45.46459961 138.54101562 C -49.35797384 148.08326838 -53.25425183 157.62430604 -57.16015625 167.16143799 C -58.99879964 171.65137378 -60.83588449 176.14194652 -62.67285156 180.63256836 C -63.5464224 182.76683884 -64.42075128 184.90079923 -65.29589844 187.03442383 C -66.51170613 189.99872144 -67.72486194 192.96409211 -68.9375 195.9296875 C -69.29078369 196.789039 -69.64406738 197.6483905 -70.00805664 198.53378296 C -71.80877503 202.94505779 -73.56066955 207.37495127 -75.25390625 211.82861328 C -75.58849854 212.70284943 -75.92309082 213.57708557 -76.26782227 214.47781372 C -77.85038886 219.9293968 -76.80696703 224.2892299 -74.4375 229.3125 C -70.47076897 233.68607524 -65.96088292 236.14797935 -60 236.5 C -55.24158469 236.14614524 -51.651481 235.15567079 -48 232 C -42.24977221 222.62815248 -38.4033321 211.98531769 -34.35214233 201.80075073 C -32.89516693 198.13848927 -31.42456225 194.48174069 -29.95509338 190.82447815 C -29.17223898 188.87571702 -28.39005203 186.92668764 -27.60850525 184.97740173 C -23.18311201 173.94438689 -18.68585251 162.94091929 -14.1875 151.9375 C -13.34343181 149.87136814 -12.49943809 147.80520586 -11.65551758 145.73901367 C -9.9534039 141.5718261 -8.2509872 137.40476252 -6.54833984 133.23779297 C -3.60986632 126.04575927 -0.67362858 118.85281368 2.26167297 111.65948486 C 4.3278276 106.59617784 6.39486115 101.53323424 8.46411133 96.47119141 C 12.37932095 86.89062756 16.28460771 77.30631401 20.16015625 67.70962524 C 21.99434238 63.16930409 23.83340321 58.63096479 25.67285156 54.09277344 C 26.54964492 51.92562929 27.42403988 49.75751307 28.29589844 47.58837891 C 29.50373365 44.58378341 30.71973932 41.58261492 31.9375 38.58203125 C 32.29078369 37.69687332 32.64406738 36.81171539 33.00805664 35.8997345 C 36.08353832 28.36218009 39.40494378 22.91121208 46 18 C 51.94231012 16.01922996 58.81809916 15.80049206 64.71484375 18.0234375 C 69.59279817 20.96157311 72.24328671 24.24406712 74.44140625 29.4609375 C 75.84860116 35.85727801 75.03088693 40.9287887 72.6328125 46.94140625 C 72.36848419 47.6136171 72.10415588 48.28582794 71.83181763 48.97840881 C 70.90294815 51.32525026 69.95215097 53.66251225 69 56 C 68.25447687 57.85384071 67.50938206 59.7078537 66.76464844 61.56201172 C 64.15740702 68.0297944 61.5165158 74.48365807 58.875 80.9375 C 57.89578186 83.33479206 56.9167818 85.73217321 55.93798828 88.12963867 C 53.93380509 93.03775851 51.92838709 97.94537086 49.921875 102.85253906 C 47.21586095 109.47082771 44.51338153 116.09055288 41.8125 122.7109375 C 38.52721837 130.76350173 35.24082398 138.81560992 31.953125 146.8671875 C 29.0023112 154.09390084 26.05283498 161.3211573 23.1053772 168.54924011 C 22.23478525 170.68401473 21.36399746 172.81870949 20.49301147 174.95332336 C 18.3658684 180.16667157 16.24104086 185.38093477 14.12158203 190.59741211 C 10.36052337 199.8440835 6.56459769 209.07057921 2.6328125 218.24609375 C 1.64656753 220.56658223 0.66158366 222.88760203 -0.32305908 225.20877075 C -1.21455166 227.29215844 -2.12677149 229.36551501 -3.04052734 231.43920898 C -6.38211985 239.20439353 -8.89324942 246.67158348 -6.37792969 255.0793457 C -4.35738761 259.3558601 -1.41236874 261.53029414 2.78515625 263.34375 C 7.91443014 264.86353486 12.30753292 264.60673348 17.3125 262.8125 C 22.49534838 259.31709063 24.73985629 254.79267173 27.07421875 249.11328125 C 27.49507751 248.09844666 27.49507751 248.09844666 27.92443848 247.06311035 C 28.85361568 244.81617249 29.77063496 242.56448695 30.6875 240.3125 C 31.35073389 238.70052437 32.01456602 237.08879478 32.67895508 235.47729492 C 34.79946817 230.32367036 36.9017635 225.16272786 39 220 C 39.33854004 219.16742676 39.67708008 218.33485352 40.02587891 217.47705078 C 43.49494175 208.94232026 46.9502857 200.40207918 50.39822388 191.85879517 C 55.5053207 179.20566966 60.65238976 166.56908904 65.8125 153.9375 C 66.22654083 152.92395447 66.64058167 151.91040894 67.06716919 150.8661499 C 68.75388032 146.73745575 70.44068119 142.6087983 72.12776184 138.48025513 C 75.21014439 130.93633118 78.28759299 123.39040538 81.36328125 115.84375 C 82.69088771 112.58730635 84.01857191 109.33089441 85.34628296 106.07449341 C 86.1786407 104.03252426 87.01070748 101.99043648 87.84243774 99.94821167 C 90.15256316 94.27628016 92.46952815 88.6072287 94.79504395 82.94158936 C 95.63738533 80.88523017 96.47692039 78.8277202 97.31433105 76.76934814 C 98.64867811 73.49079926 99.9915635 70.21585431 101.3359375 66.94140625 C 101.94678696 65.43259132 101.94678696 65.43259132 102.56997681 63.89329529 C 105.62115544 56.49768434 108.4249214 50.05074494 115.59375 45.91796875 C 121.65199408 43.60678797 128.5171086 43.98841678 134.4375 46.5625 C 139.33622999 49.42009249 142.23096527 53.6928958 144 59 C 144.71077641 66.65941296 143.5686824 72.63219477 140.546875 79.6328125 C 139.99638237 80.97318573 139.99638237 80.97318573 139.43476868 82.34063721 C 138.22426853 85.27647922 136.98719603 88.20032011 135.75 91.125 C 134.88404964 93.21225095 134.02007436 95.30032229 133.15795898 97.38916016 C 131.35569974 101.74958297 129.54366863 106.10574839 127.72412109 110.45898438 C 125.11306074 116.71477772 122.5427488 122.98653892 119.98828125 129.265625 C 119.58191437 130.26447723 119.17554749 131.26332947 118.75686646 132.29244995 C 117.93686484 134.30858298 117.11698966 136.32476744 116.29724121 138.34100342 C 114.21551644 143.45620147 112.12515382 148.56786531 110.03515625 153.6796875 C 106.68672404 161.87154851 103.34014431 170.0641618 99.99609375 178.2578125 C 99.37655823 179.77579689 99.37655823 179.77579689 98.74450684 181.32444763 C 97.08537116 185.38981174 95.42633278 189.45521553 93.76739502 193.5206604 C 89.45259268 204.09459223 85.13652569 214.66799957 80.8140564 225.23880005 C 78.96619701 229.75808433 77.11917438 234.27771038 75.2722168 238.79736328 C 74.39145062 240.95199413 73.51027438 243.1064574 72.62866211 245.26074219 C 71.40635067 248.24762345 70.18545317 251.23507912 68.96484375 254.22265625 C 68.60639877 255.09749161 68.2479538 255.97232697 67.87864685 256.87367249 C 62.031107 269.53234954 62.031107 269.53234954 62.65625 282.984375 C 64.97475129 287.66135175 68.18396727 290.12032478 73 292 C 77.98442069 293.35938746 81.2976937 292.91910897 86.0078125 291.1796875 C 91.35964534 288.01056296 93.8812674 283.74529213 96.171875 278.11328125 C 96.45103256 277.43672485 96.73019012 276.76016846 97.01780701 276.06311035 C 97.9406825 273.81766257 98.8452926 271.56532253 99.75 269.3125 C 100.40820567 267.70033368 101.06749197 266.08860819 101.7277832 264.47729492 C 103.48064265 260.19007289 105.21756963 255.89658116 106.95001221 251.60107422 C 108.31068783 248.23035095 109.67813369 244.86239602 111.04573059 241.49447632 C 113.83748389 234.61895476 116.62136921 227.7402912 119.39836121 220.85879517 C 124.5049005 208.20546255 129.65261453 195.56916116 134.8125 182.9375 C 135.22687317 181.92295746 135.64124634 180.90841492 136.06817627 179.86312866 C 138.18244774 174.68675759 140.29715188 169.51056346 142.41210938 164.33447266 C 145.493943 156.79163665 148.57401722 149.24808244 151.65237427 141.7038269 C 153.79854308 136.44432611 155.94649843 131.18557394 158.09912109 125.92871094 C 161.61989339 117.32552434 165.12868901 108.7202046 168.5234375 100.06640625 C 169.03282198 98.7777135 169.54249183 97.48913351 170.05249023 96.20068359 C 170.93693779 93.95721447 171.81002949 91.70921289 172.66821289 89.45556641 C 176.14767402 80.66417265 176.14767402 80.66417265 181 78 C 184.47434337 77.23655025 187.86147726 77.72306204 191.3125 78.5625 C 194.05000275 80.89444678 195.17554483 83.58907162 196 87 C 200.50637319 161.5244287 163.19664194 259.1836769 120 328 C 119.55060059 328.68449219 119.10120117 329.36898438 118.63818359 330.07421875 C 109.2081427 344.33803371 98.85643299 357.66350428 87 370 C 86.42733398 370.59989746 85.85466797 371.19979492 85.26464844 371.81787109 C 61.87293763 396.19927908 31.40586931 417.2747085 -3.49609375 418.33984375 C -22.86725747 418.56637127 -22.86725747 418.56637127 -26 417 C -26.79206701 418.74041956 -26.79206701 418.74041956 -27.35253906 421.12329102 C -29.1264796 427.50744003 -31.23108341 433.75355333 -33.359375 440.02734375 C -33.78036972 441.27218536 -34.20136444 442.51702698 -34.63511658 443.79959106 C -35.76908207 447.15150167 -36.90556443 450.50255342 -38.04281235 453.85335159 C -38.75534065 455.9532394 -39.4671859 458.05335768 -40.17886353 460.15353394 C -46.22600434 477.99564319 -52.33448731 495.81444079 -58.5748291 513.59005737 C -63.81712536 528.52636419 -68.92570468 543.50584479 -74 558.5 C -79.40291666 574.46489801 -84.85712759 590.40874093 -90.4375 606.3125 C -96.23585282 622.83796252 -101.8902627 639.40960717 -107.5 656 C -113.40049938 673.45030067 -119.36484354 690.87446065 -125.46386719 708.25634766 C -130.74140206 723.30445386 -135.88799426 738.39492414 -141 753.5 C -146.73507195 770.4457981 -152.53766176 787.36457533 -158.46002197 804.24581909 C -164.63984927 821.8673152 -170.65084441 839.54499082 -176.63110352 857.23510742 C -176.98258957 858.2732962 -177.33407562 859.31148499 -177.69621277 860.38113403 C -178.35800274 862.3362412 -179.01855394 864.29176825 -179.6776886 866.24777222 C -180.11639534 867.54353683 -180.11639534 867.54353683 -180.56396484 868.86547852 C -180.81850433 869.61958511 -181.07304382 870.37369171 -181.33529663 871.15065002 C -182 873 -182 873 -183 875 C -181.09771883 874.74648212 -181.09771883 874.74648212 -178.65112305 874.12304688 C -167.230859 872.08498228 -167.230859 872.08498228 -162 875 C -157.50236881 882.58950877 -157.91017317 892.47480718 -157.88891602 901.06201172 C -157.87252282 904.05191669 -157.69977486 906.96572856 -157.3762207 909.93798828 C -157.2670142 911.03869408 -157.2670142 911.03869408 -157.1556015 912.16163635 C -156.94606113 914.17766389 -156.70837465 916.19071028 -156.46862793 918.20336914 C -156.51736355 920.2134285 -156.51736355 920.2134285 -156.76953125 922.65625 C -156.94124769 924.42744265 -156.94124769 924.42744265 -157.11643314 926.23441696 C -158.06333803 930.60199288 -158.75101278 932.88652301 -162 936 C -167.50560481 936.79787939 -173.16309365 935.31825573 -178.59836197 934.45105362 C -193.65304155 932.05736561 -193.65304155 932.05736561 -208 936 C -217.29407216 947.22863028 -213.38094078 969.65981013 -212.69921913 983.10943519 C -212.36140731 989.95826627 -212.28726114 996.80251367 -212.22911373 1003.65849397 C -212.11836407 1015.91925242 -211.80364377 1028.16603015 -211.36035156 1040.41894531 C -210.93260018 1052.25530724 -210.59129339 1064.08843645 -210.37597656 1075.93066406 C -210.36276048 1076.65560768 -210.34954439 1077.38055129 -210.33592781 1078.12746289 C -210.25715872 1082.49128267 -210.18184929 1086.85515755 -210.10744232 1091.21905357 C -209.99741175 1097.63114026 -209.88096792 1104.0431083 -209.76104736 1110.45501709 C -209.7481634 1111.1478235 -209.73527943 1111.84062991 -209.72200504 1112.55443045 C -209.53088472 1122.71075966 -209.26511286 1132.86282513 -208.95330811 1143.01617432 C -208.87745737 1145.5818869 -208.80167084 1148.14760139 -208.72595215 1150.71331787 C -208.5869087 1155.40217612 -208.43027732 1160.08993898 -208.262146 1164.77783203 C -206.10873875 1231.74353519 -223.51155256 1299.2398615 -270 1349 C -270.79792969 1349.86367187 -271.59585938 1350.72734375 -272.41796875 1351.6171875 C -307.57663869 1388.31837095 -357.4179499 1404.15700329 -407.0625 1406.19140625 C -460.05453435 1407.07854968 -507.61467027 1388.08328067 -546 1352 C -546.68707031 1351.37867188 -547.37414063 1350.75734375 -548.08203125 1350.1171875 C -559.83001087 1339.08645295 -568.96605682 1324.87065537 -577 1311 C -577.57161865 1310.01942627 -577.57161865 1310.01942627 -578.15478516 1309.01904297 C -594.13183567 1281.25151462 -602.7652916 1250.05500577 -606.6875 1218.4375 C -606.80697998 1217.48206299 -606.92645996 1216.52662598 -607.04956055 1215.54223633 C -608.98693963 1198.75676148 -609.05958753 1182.17542851 -608.47320938 1165.31386757 C -608.25733958 1159.06931554 -608.07063635 1152.82387289 -607.88209534 1146.57844543 C -607.86197191 1145.92002976 -607.84184849 1145.26161409 -607.82111527 1144.58324642 C -607.50482352 1134.20228835 -607.25768502 1123.82119206 -607.06089783 1113.43730164 C -607.04078363 1112.37884891 -607.04078363 1112.37884891 -607.02026308 1111.29901329 C -606.88307098 1104.02668229 -606.75441787 1096.75422302 -606.6325816 1089.48161938 C -606.56991991 1085.76367138 -606.50501 1082.04576586 -606.4387207 1078.32788086 C -606.4255643 1077.58798108 -606.4124079 1076.8480813 -606.39885282 1076.08576032 C -606.17955616 1064.03096778 -605.79410909 1051.98665742 -605.3508013 1039.93826792 C -604.89860535 1027.54446156 -604.62709432 1015.15621234 -604.52442259 1002.75453538 C -604.46148327 995.7936663 -604.31251854 988.85595515 -603.95552254 981.90343666 C -601.4623182 957.73984775 -601.4623182 957.73984775 -609 936 C -617.99066272 931.46412728 -629.89532054 934.12940292 -639.45114231 935.27156353 C -655.43509484 937.07821384 -655.43509484 937.07821384 -660.20633125 933.79084969 C -665.37122895 926.03448886 -665.82424727 917.23196635 -665.43514824 908.16562605 C -665.34431807 905.9901683 -665.32533812 903.82206155 -665.31184387 901.64491653 C -665.09228071 891.8275742 -663.5527814 882.66993167 -657 875 C -636.5408118 861.85684386 -603.90769847 866.33937606 -580.83970356 867.15732694 C -573.56212628 867.3879869 -566.33479419 867.30534782 -559.05908203 867.04736328 C -501.57494481 865.05253554 -501.57494481 865.05253554 -486 875 C -478.8209063 883.26218799 -477.4894612 893.21412626 -477.32504082 903.8042531 C -477.28089539 905.99415348 -477.15267362 908.16872986 -477.01826477 910.35474777 C -476.65112631 918.79817103 -477.41574117 926.76509685 -482.46871948 933.79472923 C -487.80594977 938.17793903 -495.67083338 936.19466929 -502.03187895 935.6014244 C -504.50347031 935.34872495 -506.97437194 935.08919755 -509.44457531 934.82327235 C -524.98522582 932.79199378 -524.98522582 932.79199378 -540 936 C -547.99710381 944.32981764 -546.26446683 959.79603676 -546.13265848 970.41484076 C -545.99322853 975.20063524 -545.74302834 979.97392458 -545.46102801 984.75308289 C -545.05360502 991.83483418 -544.95179353 998.91129908 -544.86758959 1006.00305141 C -544.70884224 1018.67960579 -544.30754441 1031.33660617 -543.75634766 1044.00170898 C -543.22395646 1056.2462043 -542.80572925 1068.48560649 -542.54443359 1080.73901367 C -542.52839034 1081.48954946 -542.51234708 1082.24008525 -542.49581766 1083.01336455 C -542.41592611 1086.78197497 -542.33814614 1090.55062578 -542.26116943 1094.31929672 C -541.77162323 1118.107795 -541.09839918 1141.88618138 -540.17578125 1165.66186523 C -540.13180899 1166.83332973 -540.08783672 1168.00479424 -540.04253197 1169.21175766 C -539.5834853 1181.29431174 -538.97491962 1193.35228761 -538.03588867 1205.40785217 C -537.92172214 1206.89603932 -537.92172214 1206.89603932 -537.80524921 1208.41429085 C -535.86049985 1232.00523089 -530.38220127 1254.68977062 -520 1276 C -519.44441406 1277.14082031 -518.88882813 1278.28164062 -518.31640625 1279.45703125 C -514.30471241 1287.26732664 -509.50862056 1294.17430961 -504 1301 C -503.37480469 1301.79148437 -502.74960938 1302.58296875 -502.10546875 1303.3984375 C -488.54753674 1319.66795591 -469.05507045 1329.41049439 -449 1335 C -447.86433594 1335.31710937 -446.72867188 1335.63421875 -445.55859375 1335.9609375 C -410.48136114 1344.48753315 -366.43617342 1341.42386219 -334.76513672 1323.08398438 C -329.89086348 1320.09065475 -325.41800581 1316.62860237 -321 1313 C -320.28585937 1312.44957031 -319.57171875 1311.89914062 -318.8359375 1311.33203125 C -293.18338504 1290.63624689 -282.07066169 1252.24959489 -278.30808449 1220.92362785 C -277.73137525 1215.450833 -277.40001595 1209.96547785 -277.07299805 1204.47290039 C -277.0116137 1203.44395477 -277.0116137 1203.44395477 -276.94898927 1202.39422238 C -274.68454646 1163.9887139 -273.39149629 1125.53413772 -272.53965913 1087.07394018 C -272.45872972 1083.42465295 -272.37547838 1079.77542211 -272.29077148 1076.1262207 C -272.26555452 1075.03721841 -272.26555452 1075.03721841 -272.23982813 1073.92621607 C -271.95894134 1062.05651946 -271.47187009 1050.20342705 -270.9122142 1038.34398162 C -270.33947228 1026.11334554 -269.98074089 1013.89021146 -269.82464808 1001.64708477 C -269.73104116 994.78456783 -269.53721408 987.95492637 -269.09745216 981.10513115 C -267.00790119 958.76714778 -267.00790119 958.76714778 -273.13647795 937.82222247 C -278.74136631 932.34155026 -288.09201543 933.0432069 -295.41347027 933.05346775 C -302.08572875 933.3148478 -308.60737852 934.09172212 -315.23003983 934.9459275 C -330.37207426 936.87072783 -330.37207426 936.87072783 -333.94922626 934.95741832 C -337.43646399 931.51394601 -338.48841264 927.46010102 -339.359375 922.69140625 C -339.51165715 921.88673983 -339.6639393 921.0820734 -339.82083607 920.25302315 C -339.99516296 918.2457428 -339.99516296 918.2457428 -339.60424805 914.36352539 C -339.54226321 913.65332528 -339.48027838 912.94312517 -339.41641521 912.21140385 C -339.28482976 910.73259736 -339.13701271 909.2551445 -338.97292709 907.77959061 C -338.75025403 905.56502639 -338.63450416 903.36825001 -338.54849243 901.14450073 C -338.14281073 892.07369252 -337.35262405 882.64614049 -332 875 C -324.90536322 870.50126439 -315.56632308 872.52244135 -307.6875 873.5625 C -292.74604114 876.23240939 -292.74604114 876.23240939 -278.83502197 872.46166992 C -269.91439715 862.52893143 -267.2152342 847.04451469 -263.86816406 834.49707031 C -261.30361842 825.16586957 -257.45097749 816.40464778 -253.60546875 807.54403687 C -251.55157188 802.77590916 -249.58949268 797.97027337 -247.6171875 793.16796875 C -246.8387557 791.28281748 -246.05978962 789.39788673 -245.28027344 787.51318359 C -244.90076538 786.59535095 -244.52125732 785.67751831 -244.13024902 784.73187256 C -240.57880139 776.147833 -237.0176802 767.56779942 -233.4574585 758.98739624 C -227.79119122 745.33060876 -222.14189026 731.66687484 -216.5 718 C -210.16628469 702.65725309 -203.81945562 687.3200376 -197.45800781 671.98876953 C -191.79156217 658.33152237 -186.14207836 644.66733047 -180.5 631 C -174.16628469 615.65725309 -167.81945562 600.3200376 -161.45800781 584.98876953 C -155.79156217 571.33152237 -150.14207836 557.66733047 -144.5 544 C -138.51210293 529.49496074 -132.5138856 514.99428353 -126.5 500.5 C -122.48946916 490.83291704 -118.48014352 481.16533941 -114.48020935 471.49386597 C -113.67662094 469.5511904 -112.87247019 467.60874736 -112.06776428 465.66653442 C -110.05831216 460.8129483 -108.06087913 455.95505739 -106.08813477 451.08642578 C -102.59416444 442.491865 -99.04714936 433.96476664 -95.05406189 425.58786011 C -93.36916329 422.0423633 -91.74063013 418.47231184 -90.11575317 414.89898682 C -89.33753603 413.23193439 -88.53059099 411.57795968 -87.69406128 409.93939209 C -85.14390265 404.93747906 -83.08338313 400.67504164 -83 395 C -85.80289753 390.1496564 -90.58720439 387.15539246 -95.20808411 384.1975708 C -116.45796577 369.99587869 -127.37650576 340.36939498 -132.8125 316.75 C -133.23588368 314.50502109 -133.63157613 312.25465028 -134 310 C -134.20367188 308.80761719 -134.40734375 307.61523438 -134.6171875 306.38671875 C -146.51862896 223.9733125 -107.15593794 136.83656706 -65 68 C -64.53658203 67.23333008 -64.07316406 66.46666016 -63.59570312 65.67675781 C -51.93028846 46.3800036 -38.56698131 28.32916289 -23 12 C -22.19304688 11.14019531 -21.38609375 10.28039062 -20.5546875 9.39453125 C -8.83547018 -2.78153691 -8.83547018 -2.78153691 0 0 Z" stroke-linecap="round" />
</g>
		<g transform="matrix(1 0 0 1 -1367.76 627.86)"  >
<path style="stroke: none; stroke-width: 1; stroke-dasharray: none; stroke-linecap: butt; stroke-dashoffset: 0; stroke-linejoin: miter; stroke-miterlimit: 4; fill: rgb(13,152,72); fill-rule: nonzero; opacity: 1;" vector-effect="non-scaling-stroke"  transform=" translate(-107.14, -266.78)" d="M 0 0 C 13.36009092 0.67026522 26.71873382 0.98019367 40.09242558 1.26651454 C 60.97489284 1.7226439 81.84370264 2.37492807 102.7101835 3.31163847 C 103.73411644 3.35642081 104.75804937 3.40120314 105.81301057 3.44734251 C 117.13451207 3.94887778 128.43152507 4.62521216 139.72924173 5.51841033 C 141.29311118 5.64179403 141.29311118 5.64179403 142.88857394 5.76767033 C 149.94149831 6.34761829 156.83865841 7.14280713 163.76511514 8.63170683 C 164.77992959 8.84488554 165.79474405 9.05806426 166.84031045 9.27770293 C 196.2429105 15.76370408 221.23593977 27.84802964 243.20261514 48.50670683 C 244.10560342 49.31301543 244.10560342 49.31301543 245.02683389 50.13561308 C 268.03692867 71.53661032 278.89560571 105.54236532 280.32663858 136.16027129 C 281.33394968 170.81612581 271.39125787 203.03549248 247.64011514 228.88170683 C 245.84570474 230.77533424 244.02601492 232.64059198 242.20261514 234.50670683 C 241.41499795 235.35619902 240.62738077 236.20569121 239.81589639 237.08092558 C 228.96391944 248.5068914 213.93116056 260.22187159 198.72214639 264.97936308 C 193.56031187 266.5003729 193.56031187 266.5003729 189.20261514 269.50670683 C 192.4461246 273.41366141 196.84389672 275.68008889 201.17331827 278.24840605 C 221.67789429 290.96262463 235.10181043 316.85127361 242.08542764 339.23619902 C 242.34314447 340.05870524 242.6008613 340.88121146 242.86638772 341.72864211 C 245.70482198 350.93075292 248.0645774 360.24262513 250.39011514 369.58483183 C 250.8598829 371.45327126 251.33019178 373.32157471 251.80100381 375.18975127 C 253.02671945 380.05879415 254.24583107 384.92946442 255.46323526 389.80059111 C 257.40498683 397.56391072 259.3582086 405.32435938 261.30881631 413.08545744 C 262.00796262 415.86885666 262.70597271 418.65253884 263.40378702 421.43627226 C 266.07972348 432.10248325 268.78897114 442.75794896 271.62961709 453.38176787 C 273.20261514 459.30335491 273.20261514 459.30335491 273.20261514 461.50670683 C 275.02790712 461.58083419 275.02790712 461.58083419 277.31760538 461.24181426 C 278.66388513 461.09364508 278.66388513 461.09364508 280.03736246 460.94248259 C 281.01873178 460.83348128 282.0001011 460.72447997 283.01120889 460.61217558 C 309.49491521 458.2448057 309.49491521 458.2448057 318.20261514 461.50670683 C 321.84215686 465.51211576 321.75500946 469.58200889 321.51511514 474.75670683 C 321.24861334 476.77906651 320.90421162 478.77707505 320.54925191 480.78565276 C 319.25868134 488.24765044 319.24016706 494.47524852 320.75217569 501.89537871 C 323.94149374 519.1736128 323.94149374 519.1736128 320.46185815 526.84131682 C 316.68727766 531.83332282 309.60210107 532.60995987 303.80246866 533.55983794 C 292.10681622 534.99684798 280.46416445 534.98745045 268.70261514 534.75670683 C 266.25863868 534.74194552 263.81465866 534.72776229 261.37067544 534.71416533 C 223.18448611 534.22178252 223.18448611 534.22178252 212.6890043 526.14379179 C 201.52080808 514.36695248 201.85266168 494.74754664 201.24414957 479.37465727 C 200.70805783 466.83564196 198.49235925 455.19677923 195.37058389 443.05358183 C 195.02376534 441.70192994 195.02376534 441.70192994 194.66994035 440.32297194 C 193.49865638 435.78564219 192.30572651 431.25437511 191.10260904 426.7253958 C 189.07135196 419.0379221 187.23824946 411.30310522 185.38516366 403.57121718 C 182.50273015 391.59047146 179.52653229 379.63180591 176.39078653 367.71474898 C 175.9080502 365.87883489 175.43057349 364.04154025 174.95334756 362.20418608 C 169.44646465 341.56251103 160.43521214 322.73930383 145.20261514 307.50670683 C 144.64187295 306.94596465 144.08113077 306.38522246 143.50339639 305.80748808 C 132.86722854 295.99543009 119.17916796 290.87644063 105.07232034 288.6661154 C 100.67717995 287.95392699 96.32408435 287.12986282 91.96742141 286.21856415 C 55.99287221 278.27452647 55.99287221 278.27452647 20.9337467 285.26254809 C 14.40241815 289.95659315 12.80578226 298.54763563 11.40417969 305.99610889 C 8.18576033 326.0973498 9.42825422 346.82306901 10.57232785 367.04884171 C 10.98108807 374.75230087 11.05820146 382.40775404 10.94016397 390.12023222 C 8.61949234 430.03913788 8.61949234 430.03913788 19.20261514 467.50670683 C 25.93562001 472.40619195 34.24714433 471.20215607 42.0693506 470.03102744 C 45.66647781 469.36324721 49.23963609 468.61522804 52.81829202 467.85535491 C 66.10927404 465.33227413 66.10927404 465.33227413 71.20261514 467.50670683 C 79.93707592 477.43516793 80.37454576 493.5655764 79.63503397 506.14341033 C 78.8157906 514.52626237 76.79118451 522.00640804 71.20261514 528.50670683 C 50.84762625 541.60502402 18.44707958 537.1682692 -4.51229537 536.3493799 C -11.74751733 536.11871375 -18.93220305 536.2013529 -26.16554892 536.45934355 C -83.38044327 538.45648116 -83.38044327 538.45648116 -98.79738486 528.50670683 C -105.85400987 520.22874287 -107.06278135 510.22583958 -107.14857733 499.70245373 C -107.1725571 497.51442779 -107.27130663 495.33758351 -107.37322104 493.15195906 C -107.61806469 484.73273338 -106.81560989 476.68462152 -102.04649603 469.56776488 C -97.07341354 466.41311392 -93.12354955 467.63853097 -87.5271517 468.72551787 C -69.63997937 472.73370309 -69.63997937 472.73370309 -52.09337962 469.44381821 C -45.37568297 463.77615431 -45.05110102 452.75373034 -44.23944209 444.52005499 C -42.74522083 426.30273501 -42.9022143 407.96234968 -43.16770374 389.70225362 C -43.27898297 381.84313182 -43.29388314 373.98921961 -43.24041235 366.12954009 C -43.23290394 365.01384487 -43.22539552 363.89814965 -43.21765957 362.74864548 C -43.201994 360.48256995 -43.18610757 358.21649593 -43.17000259 355.95042348 C -43.03004318 334.66650171 -43.1912282 313.39289408 -43.45422055 292.11066461 C -43.67322061 273.82182192 -43.63519983 255.54820406 -43.40920126 237.25963652 C -43.14731158 216.05652192 -43.04350174 194.86246046 -43.19420218 173.65795481 C -43.20981211 171.39992915 -43.22521625 169.14190206 -43.24041235 166.88387358 C -43.25175161 165.21711509 -43.25175161 165.21711509 -43.26331993 163.51668471 C -43.30574963 155.66072651 -43.23311811 147.81054383 -43.11891425 139.95546782 C -40.70360684 101.72294978 -40.70360684 101.72294978 -49.79738486 65.50670683 C -54.9335255 61.15512936 -60.78536243 60.93250323 -67.28823054 61.11586726 C -75.1342053 61.85001952 -82.8473526 63.42214625 -90.57736748 64.91531211 C -97.6212343 66.02470058 -97.6212343 66.02470058 -100.69269717 64.67198384 C -106.2369496 60.15930671 -107.68034275 52.89252007 -108.5789755 46.12403935 C -108.89869158 42.49404417 -108.85529914 38.89286252 -108.79347861 35.25280058 C -108.80354461 34.5322388 -108.81361061 33.81167702 -108.82398164 33.06928003 C -108.93989355 23.19228205 -107.67692797 13.20845757 -100.4923569 5.83048594 C -78.27844299 -11.51865873 -26.11676788 -1.3249024 0 0 Z M 5.51511514 147.00670683 C 5.51102215 147.96931819 5.50692915 148.93192955 5.50271213 149.92371094 C 4.64431403 193.12175707 4.64431403 193.12175707 21.68969858 231.11244261 C 36.64760048 242.45604891 57.31837734 240.74660893 74.95261514 238.94420683 C 75.93872364 238.84626767 75.93872364 238.84626767 76.94475353 238.74634993 C 93.89527839 237.04378759 110.46818878 233.9718469 127.02109659 229.97249663 C 133.55974761 228.39300431 140.13718928 227.07748636 146.75293481 225.86486018 C 165.61303824 222.28586031 182.94725677 211.94061812 194.01511514 196.13170683 C 202.71286557 183.14968235 207.58166224 168.16551915 208.20261514 152.50670683 C 208.24257608 151.75905058 208.28253702 151.01139433 208.32370889 150.24108183 C 208.97828066 126.98453198 202.0462477 105.18340755 185.99558389 88.16686308 C 171.26511589 73.87611054 150.18358122 67.52119358 130.06276834 66.12859404 C 124.28060455 65.61661378 118.90944319 64.3031791 113.31516397 62.80651152 C 99.34755953 59.28735202 85.32811725 56.86245896 71.01511514 55.25670683 C 69.80008184 55.11856566 68.58504854 54.98042449 67.33319604 54.83809721 C 51.87870559 53.27413461 34.31409225 52.66621513 21.55161417 62.91060698 C 3.65554941 82.6892321 5.58375648 122.23881921 5.51511514 147.00670683 Z" stroke-linecap="round" />
</g>
		<g transform="matrix(1 0 0 1 -934.58 0.56)"  >
<path style="stroke: none; stroke-width: 1; stroke-dasharray: none; stroke-linecap: butt; stroke-dashoffset: 0; stroke-linejoin: miter; stroke-miterlimit: 4; fill: rgb(220,166,53); fill-rule: nonzero; opacity: 1;" vector-effect="non-scaling-stroke"  transform=" translate(0.01, -272.28)" d="M 0 0 C 0.94177094 0.00182281 1.88354187 0.00364563 2.85385132 0.00552368 C 17.3744255 0.05273981 31.57428381 0.59331171 45.875 3.3125 C 46.75671875 3.47347168 47.6384375 3.63444336 48.546875 3.80029297 C 87.38498319 11.10348492 124.59315387 27.81861709 154.875 53.3125 C 155.4529834 53.79041992 156.0309668 54.26833984 156.62646484 54.76074219 C 168.94689264 64.94885283 179.96378298 75.74080507 189.875 88.3125 C 190.50535156 89.06402344 191.13570312 89.81554687 191.78515625 90.58984375 C 202.89235891 103.93217139 211.89068003 118.94010256 219.875 134.3125 C 220.25221191 135.03421387 220.62942383 135.75592773 221.01806641 136.49951172 C 234.05100321 161.76883393 242.10578172 189.16294535 247.125 217.0625 C 247.35195557 218.31800659 247.35195557 218.31800659 247.58349609 219.59887695 C 250.5034542 236.98500037 251.25254392 254.33651131 251.1875 271.9375 C 251.18534485 272.99176178 251.1831897 274.04602356 251.18096924 275.13223267 C 251.12885994 291.04499577 250.6944872 306.6118262 247.875 322.3125 C 247.56900879 324.04306641 247.56900879 324.04306641 247.25683594 325.80859375 C 241.72271246 356.25835614 232.428928 384.96611802 217.875 412.3125 C 217.50294434 413.02325684 217.13088867 413.73401367 216.74755859 414.46630859 C 207.08632434 432.85200324 195.16904237 449.47610347 181.15625 464.80859375 C 179.63960508 466.47326737 178.13936472 468.15304101 176.65625 469.84765625 C 158.67260117 490.33255201 135.87811712 505.74936099 111.875 518.3125 C 111.14361816 518.69792969 110.41223633 519.08335937 109.65869141 519.48046875 C 83.72036667 532.96448587 54.92654462 540.62312127 25.875 543.3125 C 24.70839844 543.42335938 23.54179688 543.53421875 22.33984375 543.6484375 C -19.60012724 547.02554071 -62.8647052 541.27994552 -101.125 523.3125 C -102.15778076 522.83127686 -102.15778076 522.83127686 -103.21142578 522.34033203 C -120.07569644 514.40207027 -135.49611102 504.8500319 -150.125 493.3125 C -151.08792969 492.56355469 -152.05085937 491.81460937 -153.04296875 491.04296875 C -209.62000603 445.99862149 -241.25794231 378.96375807 -249.375 307.75 C -249.66229624 304.93992358 -249.90635471 302.12870371 -250.125 299.3125 C -250.20959473 298.22630371 -250.20959473 298.22630371 -250.29589844 297.11816406 C -255.75244864 223.21258175 -236.98928959 146.09260036 -189.125 88.3125 C -186.36046536 85.15400458 -183.5139904 82.07500998 -180.640625 79.015625 C -178.58458509 76.80633988 -176.62399728 74.56251617 -174.6875 72.25 C -131.92875563 23.3541182 -63.37587668 -0.2556976 0 0 Z M -73.125 81.3125 C -73.75599609 81.61913574 -74.38699219 81.92577148 -75.03710938 82.24169922 C -100.1360038 94.5800701 -121.70353599 113.78953894 -138.125 136.3125 C -138.54491211 136.88806641 -138.96482422 137.46363281 -139.39746094 138.05664062 C -164.36799885 172.79317345 -179.09530137 217.9851159 -179.328125 260.81640625 C -179.33518463 261.68914688 -179.34224426 262.56188751 -179.34951782 263.46107483 C -179.52429174 291.43840586 -177.57905674 317.20033585 -170.125 344.3125 C -169.91568848 345.0957666 -169.70637695 345.8790332 -169.49072266 346.68603516 C -166.57101751 357.34857834 -162.00206445 367.24042475 -157.25 377.1875 C -156.95939697 377.8002478 -156.66879395 378.41299561 -156.36938477 379.04431152 C -152.27170972 387.63236028 -147.62081525 395.54740708 -142.125 403.3125 C -141.4451001 404.28147217 -141.4451001 404.28147217 -140.75146484 405.27001953 C -114.37734738 441.98008712 -72.60509965 469.38555525 -28.03930664 477.11694336 C -20.73865998 478.30332261 -13.52522649 479.09484628 -6.125 479.3125 C -5.22007812 479.35246094 -4.31515625 479.39242188 -3.3828125 479.43359375 C 38.97310076 480.45349534 79.39920522 465.44995291 110.875 437.3125 C 112.33281696 436.06189782 113.79107497 434.81180936 115.25 433.5625 C 116.46363785 432.48511255 117.67235505 431.40214475 118.875 430.3125 C 119.42027344 429.82136719 119.96554687 429.33023437 120.52734375 428.82421875 C 155.7803915 395.39603465 174.24821639 343.48793545 178.875 296.3125 C 178.94412598 295.62446289 179.01325195 294.93642578 179.08447266 294.22753906 C 184.53788917 237.10336085 169.55444944 174.19736885 132.875 129.3125 C 129.31198279 125.20786169 125.63219962 121.23893103 121.875 117.3125 C 120.988125 116.37277344 120.10125 115.43304687 119.1875 114.46484375 C 90.83060251 85.15996858 48.80023193 65.98894411 7.91796875 65.109375 C -20.73013494 64.8216191 -47.13836358 68.5283162 -73.125 81.3125 Z" stroke-linecap="round" />
</g>
		<g transform="matrix(1 0 0 1 -383.85 0.7)"  >
<path style="stroke: none; stroke-width: 1; stroke-dasharray: none; stroke-linecap: butt; stroke-dashoffset: 0; stroke-linejoin: miter; stroke-miterlimit: 4; fill: rgb(220,166,53); fill-rule: nonzero; opacity: 1;" vector-effect="non-scaling-stroke"  transform=" translate(-0.72, -272.41)" d="M 0 0 C 1.41315491 0.00273422 1.41315491 0.00273422 2.8548584 0.00552368 C 17.37964391 0.052734 31.56698693 0.62006134 45.875 3.3125 C 46.82101074 3.48410645 47.76702148 3.65571289 48.74169922 3.83251953 C 95.55297208 12.5265966 137.68135461 35.42686782 171.875 68.3125 C 172.36629395 68.78187988 172.85758789 69.25125977 173.36376953 69.73486328 C 180.09208323 76.19178282 186.12365791 82.97979064 191.875 90.3125 C 192.64199219 91.2509375 193.40898438 92.189375 194.19921875 93.15625 C 205.22885341 106.93885305 214.46837981 122.25455313 221.91259766 138.25195312 C 222.9361935 140.44351805 223.98992748 142.61932117 225.04296875 144.796875 C 235.57863486 166.96666948 242.27886835 190.25085646 246.875 214.3125 C 247.04225586 215.17294922 247.20951172 216.03339844 247.38183594 216.91992188 C 249.49705965 228.13743087 250.34355856 239.43517045 251.0625 250.8125 C 251.10556274 251.49363861 251.14862549 252.17477722 251.19299316 252.8765564 C 255.66732838 325.56035371 235.88188865 402.26837345 187.5 458.05078125 C 185.99699209 459.7238931 184.48444065 461.38849778 182.9609375 463.04296875 C 181.03345324 465.1401005 179.16738643 467.27626355 177.3125 469.4375 C 170.47543997 477.2445777 162.97717891 483.84216839 154.875 490.3125 C 154.08351563 490.97121094 153.29203125 491.62992188 152.4765625 492.30859375 C 140.60247667 502.1116181 127.48985863 510.17186097 113.875 517.3125 C 113.11010254 517.7146875 112.34520508 518.116875 111.55712891 518.53125 C 55.52810028 547.56065969 -13.79045889 552.45330876 -73.9375 533.74169922 C -107.54489877 522.80023045 -138.47644681 505.20606499 -164.2734375 480.9765625 C -166.95264019 478.47352656 -169.68406463 476.04569394 -172.4375 473.625 C -176.71032019 469.77946183 -180.44319278 465.71697599 -184.125 461.3125 C -184.93453125 460.39082031 -185.7440625 459.46914062 -186.578125 458.51953125 C -227.21952762 412.06375978 -250.04544218 346.7595329 -250.328125 285.1796875 C -250.33513931 284.15267227 -250.34215363 283.12565704 -250.34938049 282.06752014 C -250.36678031 278.77413495 -250.37323209 275.48092946 -250.375 272.1875 C -250.37567474 271.06312531 -250.37634949 269.93875061 -250.37704468 268.78030396 C -250.36172351 252.73960996 -250.02825709 237.12887813 -247.125 221.3125 C -246.95339355 220.3121875 -246.78178711 219.311875 -246.60498047 218.28125 C -238.17945876 169.61049726 -218.54776345 122.88934414 -186.125 85.3125 C -185.47917969 84.55582031 -184.83335938 83.79914063 -184.16796875 83.01953125 C -172.66397552 69.88782196 -160.29034184 57.54977871 -146.125 47.3125 C -145.05894531 46.53648437 -143.99289062 45.76046875 -142.89453125 44.9609375 C -115.08792034 25.24906472 -84.31471201 11.70459927 -51 4.5625 C -50.08387939 4.36374268 -49.16775879 4.16498535 -48.22387695 3.96020508 C -32.23219077 0.70038823 -16.27996657 -0.06567695 0 0 Z M -123.27734375 118.27734375 C -135.17944722 131.38727167 -144.84944965 145.70943371 -153.125 161.3125 C -153.74246094 162.46492188 -154.35992188 163.61734375 -154.99609375 164.8046875 C -166.46223162 186.91977747 -173.22912428 210.77822268 -177.125 235.3125 C -177.30289062 236.38709473 -177.30289062 236.38709473 -177.484375 237.48339844 C -186.26439467 292.90727262 -175.02379118 357.35147691 -142.125 403.3125 C -114.96962395 440.25253313 -74.68356122 468.5096681 -29.296875 477.03125 C 15.85066474 483.9147314 60.74075811 474.95544454 98.02734375 448.1953125 C 104.28077101 443.57957525 110.15215 438.56660171 115.875 433.3125 C 116.3901416 432.84263672 116.9052832 432.37277344 117.43603516 431.88867188 C 156.65637155 395.67753625 177.38000042 338.76813359 179.875 286.3125 C 181.7447561 229.69394796 168.58978918 167.29547842 128.875 124.5625 C 128.00875 123.66015625 127.1425 122.7578125 126.25 121.828125 C 123.875 119.3125 123.875 119.3125 121.76953125 116.67578125 C 118.86691827 113.05499598 115.43434374 110.27322684 111.875 107.3125 C 111.34970703 106.8695459 110.82441406 106.4265918 110.28320312 105.97021484 C 101.31592336 98.43780071 92.16081109 91.91814839 81.875 86.3125 C 80.93019775 85.79478027 80.93019775 85.79478027 79.96630859 85.26660156 C 12.1411588 48.59039718 -70.12181909 63.31611124 -123.27734375 118.27734375 Z" stroke-linecap="round" />
</g>
		<g transform="matrix(1 0 0 1 158.07 -0.53)"  >
<path style="stroke: none; stroke-width: 1; stroke-dasharray: none; stroke-linecap: butt; stroke-dashoffset: 0; stroke-linejoin: miter; stroke-miterlimit: 4; fill: rgb(220,166,53); fill-rule: nonzero; opacity: 1;" vector-effect="non-scaling-stroke"  transform=" translate(-126.32, -265.44)" d="M 0 0 C 12.49399854 0.65900527 24.9884366 0.96191448 37.49580073 1.23783016 C 119.95447001 3.10367135 199.02742676 7.01260621 264.55104935 63.56324863 C 265.3193306 64.22067051 266.08761185 64.87809238 266.87917435 65.55543613 C 279.6846946 76.79206814 291.47707695 88.81924818 301.55104935 102.56324863 C 301.97579545 103.13253086 302.40054154 103.70181309 302.83815873 104.28834629 C 309.35372951 113.02916685 315.18693483 122.07411192 320.55104935 131.56324863 C 320.95323685 132.27046055 321.35542435 132.97767246 321.76979935 133.70631504 C 339.63719222 165.44187574 350.0881956 201.36434722 353.55104935 237.56324863 C 353.66190873 238.60867832 353.7727681 239.65410801 353.88698685 240.73121738 C 360.06644276 309.28977546 340.56299347 382.54133662 296.25222123 435.86329746 C 294.05062232 438.4593108 291.806576 441.01382003 289.55104935 443.56324863 C 288.8033931 444.42176426 288.05573685 445.28027988 287.28542435 446.16481113 C 278.12715176 456.54199051 268.46296764 466.03404408 257.55104935 474.56324863 C 256.61390091 475.32895176 255.67675248 476.09465488 254.7112056 476.88356113 C 210.87490776 511.97516636 157.8727469 526.31770601 102.70119584 528.74244785 C 101.13596114 528.81403425 101.13596114 528.81403425 99.53910553 528.88706684 C 79.12538278 529.81606786 58.70455175 530.39327045 38.27495587 530.83624172 C 25.28110158 531.12507302 12.30988059 531.53005457 -0.6703862 532.1994791 C -81.38505206 536.2866704 -81.38505206 536.2866704 -94.10041988 526.26113415 C -101.74149446 518.35356231 -102.38210315 507.74717104 -102.2887944 497.32106113 C -102.31437923 496.25022101 -102.31437923 496.25022101 -102.34048092 495.15774775 C -102.54662143 485.92793599 -101.5554544 477.17007394 -95.9122113 469.61007023 C -92.99056688 467.28742801 -90.78976996 467.36008781 -87.13943756 467.7036829 C -85.03963845 468.03237881 -82.9455281 468.39894651 -80.85773361 468.79683018 C -62.64956016 472.81002041 -62.64956016 472.81002041 -44.78256238 469.50225687 C -37.9869007 463.85571173 -37.61476347 452.84473505 -36.78108129 444.57587812 C -35.25198605 426.36113275 -35.41307572 408.01835682 -35.68396868 389.75879567 C -35.79752271 381.89960993 -35.812725 374.04584837 -35.75816238 366.18608189 C -35.75050073 365.07038667 -35.74283908 363.95469145 -35.73494525 362.80518728 C -35.71895998 360.53911169 -35.70274934 358.27303767 -35.68631569 356.00696528 C -35.54349885 334.72287858 -35.70797326 313.44953103 -35.97633401 292.16720641 C -36.19980605 273.87815091 -36.16100928 255.60494733 -35.93039596 237.31617832 C -35.66316027 216.11295851 -35.557232 194.91916483 -35.71100914 173.71449661 C -35.72693764 171.45647101 -35.74265615 169.19844392 -35.75816238 166.94041538 C -35.76587616 165.82924305 -35.77358993 164.71807073 -35.78153746 163.57322651 C -35.82483358 155.7171769 -35.7507214 147.86714066 -35.63418472 140.01200962 C -33.19863051 101.7451901 -33.19863051 101.7451901 -42.44895065 65.56324863 C -48.57329985 60.48724339 -56.21077556 60.79524655 -63.77664375 61.48823071 C -70.59302287 62.40623175 -77.34271498 63.69117627 -84.09881181 64.97160339 C -91.26801762 66.0808959 -91.26801762 66.0808959 -94.35278547 64.72872639 C -99.88701713 60.20898872 -101.18968989 52.91647024 -101.98496085 46.18352032 C -102.25337033 42.55147881 -102.1624716 38.95041487 -102.0622319 35.31324863 C -102.06761643 34.23250002 -102.06761643 34.23250002 -102.07310975 33.1299181 C -102.11666026 23.34302793 -100.94758145 13.37854631 -94.04748523 5.8881464 C -73.84146302 -10.85901313 -23.92445412 -1.28598398 0 0 Z M 16.3025142 81.17994785 C 10.93534749 101.13166049 11.88705861 122.90800865 12.49050778 143.36767036 C 12.71638134 151.23124749 12.7505558 159.07444317 12.64879715 166.94041538 C 12.634511 168.0561106 12.62022484 169.17180582 12.60550576 170.32130998 C 12.57563879 172.58738994 12.54532157 174.85346401 12.51455879 177.11953199 C 12.24771013 198.41526686 12.57555913 219.67053701 13.10562611 240.95929086 C 13.54767776 259.26242515 13.48644416 277.50762982 13.05593216 295.81031895 C 12.55729489 317.0206759 12.36482664 338.19676734 12.66761982 359.41200066 C 12.69902436 361.67002239 12.73004403 363.92804952 12.7606746 366.18608189 C 12.77592075 367.29725421 12.7911669 368.40842654 12.80687505 369.55327076 C 12.89351936 377.41517709 12.75778307 385.25569281 12.54186356 393.11448765 C 10.09362101 431.66126544 10.09362101 431.66126544 23.8148061 466.11366844 C 38.66252656 478.50995076 68.09491272 473.82724416 85.73252213 472.32009983 C 96.52868307 471.29000005 107.22950738 469.75706459 117.92725265 467.99085212 C 120.56109601 467.56161132 123.19752807 467.15542286 125.83610833 466.75641155 C 126.68483334 466.62696181 127.53355836 466.49751207 128.40800232 466.36413962 C 129.98141475 466.1241864 131.55510299 465.8860302 133.12914115 465.65021652 C 163.26202573 460.96344872 191.96884633 445.6632371 214.09011185 424.87184238 C 216.27621916 422.82106553 218.51206485 420.87204589 220.80104935 418.93824863 C 258.73277731 385.87962236 277.64290546 329.61582532 281.23854935 280.99684238 C 284.4680742 229.68226148 271.60154569 175.55442177 239.55104935 134.56324863 C 238.81241654 133.61449863 238.07378373 132.66574863 237.3127681 131.68824863 C 220.85936018 111.1141826 201.97963423 94.68572406 178.55104935 82.56324863 C 177.87848099 82.21133457 177.20591263 81.85942051 176.51296341 81.49684238 C 168.47089898 77.33966649 160.32836163 73.92807751 151.67604935 71.25074863 C 150.94740677 71.02040928 150.2187642 70.79006992 149.46804154 70.55275059 C 144.08890779 68.98604051 138.64335457 68.04326914 133.11298478 67.19201756 C 132.2852481 67.06414008 131.45751141 66.93626261 130.6046918 66.80451006 C 128.83031087 66.53100214 127.05579447 66.25837186 125.28115547 65.98654342 C 122.58449321 65.568434 119.89090883 65.13383678 117.19731438 64.69644451 C 58.45022113 52.88834808 58.45022113 52.88834808 16.3025142 81.17994785 Z" stroke-linecap="round" />
</g>
		<g transform="matrix(1 0 0 1 1033.87 627.61)"  >
<path style="stroke: none; stroke-width: 1; stroke-dasharray: none; stroke-linecap: butt; stroke-dashoffset: 0; stroke-linejoin: miter; stroke-miterlimit: 4; fill: rgb(13,152,72); fill-rule: nonzero; opacity: 1;" vector-effect="non-scaling-stroke"  transform=" translate(-164.98, -270.52)" d="M 0 0 C 16.34319461 -1.80217283 32.70639113 -2.35006902 49.13612249 -2.57754292 C 55.4206908 -2.66879031 61.69954005 -2.86072099 67.98096541 -3.07506099 C 85.35047179 -3.6550929 102.71458375 -4.14064568 120.09449843 -4.21573748 C 121.76377976 -4.22299811 121.76377976 -4.22299811 123.46678394 -4.23040541 C 125.72308387 -4.23976817 127.97938417 -4.24903973 130.23568484 -4.25822071 C 131.35580818 -4.26287692 132.47593153 -4.26753312 133.629998 -4.27233043 C 134.75147854 -4.27691909 135.87295908 -4.28150775 137.02842388 -4.28623546 C 154.12641151 -4.37352774 171.1300171 -5.04460024 188.19542769 -6.07701793 C 214.25998528 -7.62928463 240.2667661 -8.58895146 266.38146284 -8.18102183 C 267.40479987 -8.16513471 268.42813689 -8.14924759 269.48248413 -8.13287904 C 330.33197684 -7.01466561 330.33197684 -7.01466561 348.41271284 8.51429067 C 365.59146752 26.8925584 365.15776542 57.7371659 364.67634013 81.16865603 C 364.63128077 83.84541908 364.62415171 86.51992892 364.62684515 89.19703899 C 364.5532785 140.06676354 364.5532785 140.06676354 349.94591287 156.15675751 C 338.89003806 165.94590204 320.02913326 165.28343099 306.25698736 164.5968946 C 282.18893707 162.92611775 282.18893707 162.92611775 274.46998861 155.69412456 C 269.26584042 147.36745926 272.90818009 135.92584974 274.80443648 127.0138329 C 275.29538704 124.93981773 275.79092848 122.86688426 276.29090193 120.79502568 C 279.77256751 105.96109292 283.60304956 83.7604518 276.41271284 69.51429067 C 266.09328331 56.95447216 244.63086854 55.92350376 229.74314573 54.42871175 C 216.68413202 53.28717536 203.68077671 53.25313217 190.58459547 53.52741323 C 185.07035109 53.63982248 179.56818225 53.60990964 174.05369487 53.53466664 C 129.00803576 52.52672863 129.00803576 52.52672863 89.61765555 71.237151 C 70.74426059 92.52022615 69.65963356 125.62608617 70.03771284 152.51429067 C 70.04801024 153.49529115 70.05830763 154.47629163 70.06891707 155.4870194 C 70.42190082 180.85520748 71.8807722 216.506394 91.41271284 235.51429067 C 112.04565445 251.04759478 149.09172985 245.01037801 172.7317293 241.75056539 C 178.4029184 240.92619394 184.06167603 240.02780763 189.71959975 239.11744008 C 196.95910391 237.96238713 204.21091471 236.89324798 211.4694474 235.86520467 C 213.19555133 235.61663158 214.92048433 235.35978007 216.64409474 235.09446798 C 239.51920624 231.58142688 239.51920624 231.58142688 248.41271284 235.51429067 C 255.9161072 242.84722873 257.85037062 253.2487939 258.2060478 263.36556945 C 258.29937146 274.01892559 256.96030932 283.98736461 250.9664543 293.04293904 C 246.47837342 297.38622366 241.65625222 297.84877224 235.55874351 297.75835905 C 229.18888654 297.45634061 222.93452956 296.62905328 216.64409474 295.60525069 C 214.0460045 295.18242936 211.44502719 294.78652968 208.84173277 294.39712987 C 201.51947582 293.29310396 194.20696991 292.13429583 186.90267447 290.91709409 C 138.8566176 282.0204877 138.8566176 282.0204877 93.15601233 294.11743627 C 77.41661751 306.72894858 73.88533284 333.63945049 71.59438017 352.26868138 C 70.47040184 362.66401882 70.14116849 373.06488408 70.03771284 383.51429067 C 70.02397123 384.55063964 70.01022963 385.58698861 69.99607161 386.6547421 C 69.7254758 413.99629339 71.15639982 447.67283539 89.61765555 469.69357381 C 106.65010222 486.96949188 138.50522261 487.89509894 161.11625007 488.23398099 C 166.52051918 488.25718942 171.92095232 488.1936948 177.32432631 488.10022817 C 182.86419571 488.00738814 188.39181904 488.06321479 193.93127504 488.15671907 C 236.85010139 489.65187237 236.85010139 489.65187237 274.95269087 473.3061379 C 282.60889604 463.90987519 279.9030344 446.96223975 278.931927 435.78326259 C 278.24110951 429.41546782 277.03921256 423.29707736 275.53673342 417.07470629 C 270.34696933 395.16503993 270.34696933 395.16503993 273.22022322 387.32962499 C 276.75255913 381.68480921 283.38003407 380.21695386 289.50790146 378.73121055 C 307.44478607 374.91089184 329.89774293 373.61101851 346.63899615 382.35421536 C 355.85322655 388.38065759 359.0341253 400.66507198 361.16484144 410.82380781 C 363.90273327 425.33333597 364.63897394 439.77629361 364.62414506 454.51526133 C 364.63143463 457.1836499 364.67611629 459.84903072 364.73092917 462.51683269 C 365.13712455 485.18600475 364.96225867 514.80916653 348.41271284 532.51429067 C 327.87104198 550.15686389 291.69704224 548.81658341 266.38146284 549.20960317 C 264.8465706 549.23357925 264.8465706 549.23357925 263.28067043 549.25803969 C 237.06735925 549.60894459 210.95593789 548.48255724 184.79728022 546.90001924 C 167.73220034 545.8733752 150.72534462 545.37085925 133.629998 545.30091176 C 132.50987466 545.29625556 131.38975132 545.29159935 130.23568484 545.28680205 C 129.11755304 545.28225232 127.99942124 545.2777026 126.84740666 545.273015 C 124.5964363 545.26367436 122.34546687 545.25410952 120.09449843 545.24431882 C 118.98456513 545.23952323 117.87463184 545.23472765 116.7310642 545.22978674 C 99.42676031 545.13438879 82.13334066 544.58656138 64.83993101 543.99646135 C 58.55707689 543.78832302 52.27707285 543.64961153 45.99142039 543.56258504 C -12.67153964 542.72793048 -12.67153964 542.72793048 -26.58728716 532.51429067 C -35.39785237 521.24929587 -35.61786257 506.2439295 -34.20969889 492.58460508 C -33.19258927 485.07530593 -31.57929433 477.43872048 -26.58728716 471.51429067 C -20.10589779 468.57663567 -12.52461085 471.01521787 -5.87849042 472.47004042 C 2.61814428 474.29727888 11.629683 476.18649396 20.05691126 473.2301949 C 24.85510194 469.73531835 25.78953449 464.07897606 26.77412327 458.51614664 C 29.97004499 437.19054956 29.3550153 415.20880772 29.04238597 393.70980791 C 28.93112453 385.85069584 28.91621463 377.99679359 28.96968535 370.13712392 C 28.97719376 369.0214287 28.98470218 367.90573348 28.99243813 366.75622932 C 29.0081037 364.49015378 29.02399013 362.22407977 29.04009511 359.95800731 C 29.18005452 338.67408555 29.0188695 317.40047792 28.75587715 296.11824844 C 28.53687709 277.82940576 28.57489787 259.55578789 28.80089644 241.26722036 C 29.06278612 220.06410576 29.16659596 198.87004429 29.01589552 177.66553865 C 29.00028559 175.40751299 28.98488145 173.1494859 28.96968535 170.89145742 C 28.9583461 169.22469893 28.9583461 169.22469893 28.94677777 167.52426855 C 28.90434807 159.66831083 28.97695828 151.81812711 29.09118345 143.96305165 C 31.65368331 105.65317001 31.65368331 105.65317001 22.41271284 69.51429067 C 16.12239846 64.93259025 8.25613788 66.10766688 0.95341828 67.19061575 C -2.44841825 67.82222911 -5.82008203 68.54575544 -9.19982645 69.28557477 C -21.71363858 71.72324577 -21.71363858 71.72324577 -26.58728716 69.51429067 C -35.00626579 59.52278899 -35.37746276 43.5633817 -34.61323664 31.10827146 C -32.51491747 9.64493573 -20.12706649 2.55211002 0 0 Z" stroke-linecap="round" />
</g>
		<g transform="matrix(1 0 0 1 -880.19 627.61)"  >
<path style="stroke: none; stroke-width: 1; stroke-dasharray: none; stroke-linecap: butt; stroke-dashoffset: 0; stroke-linejoin: miter; stroke-miterlimit: 4; fill: rgb(13,152,72); fill-rule: nonzero; opacity: 1;" vector-effect="non-scaling-stroke"  transform=" translate(-164.92, -270.52)" d="M 0 0 C 16.34260399 -1.80252865 32.70534754 -2.35007686 49.13451746 -2.57754292 C 55.41908577 -2.66879031 61.69793502 -2.86072099 67.97936037 -3.07506099 C 85.34886676 -3.6550929 102.71297872 -4.14064568 120.09289339 -4.21573748 C 121.76217472 -4.22299811 121.76217472 -4.22299811 123.46517891 -4.23040541 C 125.72147883 -4.23976817 127.97777914 -4.24903973 130.23407981 -4.25822071 C 131.35420315 -4.26287692 132.47432649 -4.26753312 133.62839296 -4.27233043 C 134.7498735 -4.27691909 135.87135404 -4.28150775 137.02681884 -4.28623546 C 154.1248065 -4.37352774 171.12841204 -5.04460056 188.19382265 -6.07701793 C 214.25838328 -7.62928301 240.26515844 -8.58893513 266.37985781 -8.18102183 C 267.40326108 -8.16513471 268.42666435 -8.14924759 269.48107985 -8.13287904 C 330.34288785 -7.01452815 330.34288785 -7.01452815 348.41110781 8.51429067 C 365.57126081 26.89109262 365.11265289 57.75181416 364.61451629 81.16865603 C 364.5671675 83.84536162 364.55711663 86.51994462 364.55657557 89.19703899 C 364.41938102 140.02424544 364.41938102 140.02424544 349.92710236 156.15675751 C 339.04612785 165.90038336 320.43650782 165.28507103 306.82399634 164.5968946 C 283.08818199 162.92581739 283.08818199 162.92581739 275.50162485 155.69412456 C 269.52350616 145.93737327 274.94302335 131.01783339 277.39343813 120.79502568 C 280.85325546 105.94506201 284.66502467 83.7493258 277.41110781 69.51429067 C 267.00257832 56.93783725 245.4505876 55.92283544 230.48970774 54.42871175 C 217.36008306 53.28715765 204.2858191 53.25314351 191.11922625 53.52741323 C 185.57495779 53.63982468 180.04269939 53.60990729 174.49818918 53.53466664 C 129.23125324 52.50851145 129.23125324 52.50851145 89.60760763 71.237151 C 70.67357811 92.4925658 69.58344902 125.61710196 69.97360781 152.51429067 C 69.98969025 153.98579139 69.98969025 153.98579139 70.00609758 155.4870194 C 70.37040862 180.86765845 71.86260629 216.50791364 91.41110781 235.51429067 C 112.05172876 251.0434112 149.08442379 245.01129094 172.72999981 241.75056539 C 178.40113886 240.9261786 184.05984971 240.02779504 189.71772757 239.11744008 C 196.95731121 237.96238394 204.20920167 236.89324561 211.46781448 235.86520467 C 213.193932 235.61663228 214.91887853 235.35978083 216.64250234 235.09446798 C 239.51761497 231.58143297 239.51761497 231.58143297 248.41110781 235.51429067 C 255.91450216 242.84722873 257.84876559 253.2487939 258.20444277 263.36556945 C 258.29776643 274.01892559 256.95870428 283.98736461 250.96484926 293.04293904 C 246.47676808 297.38622396 241.65464651 297.84877224 235.5571374 297.75835905 C 229.18728498 297.45634067 222.93293288 296.62905076 216.64250234 295.60525069 C 214.04438711 295.18242736 211.44338468 294.7865283 208.84006479 294.39712987 C 201.51773377 293.29310832 194.20515438 292.134301 186.90078619 290.91709409 C 138.85621308 282.02200862 138.85621308 282.02200862 93.15552595 294.11743627 C 77.40626867 306.72875851 73.84901855 333.63126729 71.54555109 352.26868138 C 70.41544078 362.66372007 70.08132875 373.06458165 69.97360781 383.51429067 C 69.9594319 384.55063964 69.94525599 385.58698861 69.9306505 386.6547421 C 69.64882173 414.00354405 71.08659236 447.7009212 89.60760763 469.69357381 C 106.75298933 487.00262979 138.77794193 487.8954438 161.48980275 488.23398099 C 166.92368015 488.25718927 172.35374246 488.19369525 177.7867296 488.10022817 C 183.35669641 488.00739146 188.91448276 488.06321334 194.48403832 488.15671907 C 237.61213847 489.66434093 237.61213847 489.66434093 275.94042757 473.3061379 C 283.64236795 463.92224861 280.97840822 446.97716202 280.01591757 435.78326259 C 279.33051667 429.41736953 278.13672413 423.29701638 276.64431885 417.07470629 C 270.92550659 392.7918556 270.92550659 392.7918556 275.50162485 385.33244929 C 285.68493524 375.63617336 306.15260083 375.96959928 319.28731883 376.20229433 C 329.50011679 376.63164975 341.96719759 377.74426956 349.92710236 384.87174604 C 365.4677461 402.17071823 364.55273501 432.82908983 364.55711797 454.51526133 C 364.56731827 457.18363505 364.61428548 459.84907551 364.67103556 462.51683269 C 365.0919264 485.17245906 364.94337166 514.80989498 348.41110781 532.51429067 C 327.87806284 550.16151524 291.68966303 548.81669849 266.37985781 549.20960317 C 264.84490396 549.23357925 264.84490396 549.23357925 263.27894095 549.25803969 C 237.06566947 549.60893529 210.9542924 548.48255436 184.79567412 546.90001924 C 167.73059459 545.87337518 150.72373923 545.37085925 133.62839296 545.30091176 C 132.50826962 545.29625556 131.38814628 545.29159935 130.23407981 545.28680205 C 129.11594801 545.28225232 127.99781621 545.2777026 126.84580162 545.273015 C 124.59483127 545.26367436 122.34386183 545.25410952 120.09289339 545.24431882 C 118.9829601 545.23952323 117.8730268 545.23472765 116.72945917 545.22978674 C 99.42515528 545.13438879 82.13173563 544.58656138 64.83832598 543.99646135 C 58.55547154 543.78832301 52.27546718 543.64961151 45.9898144 543.56258504 C -12.65802067 542.72814542 -12.65802067 542.72814542 -26.58889219 532.51429067 C -35.42195129 521.25465066 -35.68411847 506.25720955 -34.2813246 492.58460508 C -33.26287926 485.06005721 -31.63522949 477.41858067 -26.58889219 471.51429067 C -19.97098655 468.56820118 -12.24091837 471.01607055 -5.45915291 472.47004042 C 3.21530641 474.29731919 12.40121431 476.18883234 21.00722864 473.2301949 C 25.87350785 469.75661386 26.85068717 464.11306684 27.86152661 458.51614664 C 31.12101301 437.20139313 30.49503322 415.20498759 30.17608039 393.70980791 C 30.06254738 385.85063197 30.04733352 377.99688046 30.10189608 370.13712392 C 30.10955773 369.0214287 30.11721938 367.90573348 30.1251132 366.75622932 C 30.14109848 364.49015372 30.15730912 362.2240797 30.17374277 359.95800731 C 30.31655961 338.67392062 30.15208519 317.40057306 29.88372445 296.11824844 C 29.6602524 277.82919295 29.69904917 259.55598936 29.9296625 241.26722036 C 30.19689819 220.06400054 30.30282645 198.87020687 30.14904931 177.66553865 C 30.13312082 175.40751305 30.11740231 173.14948596 30.10189608 170.89145742 C 30.0941823 169.78028509 30.08646853 168.66911276 30.078521 167.52426855 C 30.03522488 159.6682194 30.10931662 151.81818216 30.22587374 143.96305165 C 32.80437832 105.61908176 32.80437832 105.61908176 23.41110781 69.51429067 C 16.9734454 64.9190463 8.94984822 66.11001053 1.51432827 67.19061575 C -1.95758079 67.82226432 -5.39997006 68.54585247 -8.8502638 69.28557477 C -21.62648855 71.72340122 -21.62648855 71.72340122 -26.58889219 69.51429067 C -35.09288314 59.56449426 -35.44957932 43.5692324 -34.66565534 31.10827146 C -32.53192651 9.65413436 -20.12189908 2.55205902 0 0 Z" stroke-linecap="round" />
</g>
		<g transform="matrix(1 0 0 1 -463.32 629.59)"  >
<path style="stroke: none; stroke-width: 1; stroke-dasharray: none; stroke-linecap: butt; stroke-dashoffset: 0; stroke-linejoin: miter; stroke-miterlimit: 4; fill: rgb(13,152,72); fill-rule: nonzero; opacity: 1;" vector-effect="non-scaling-stroke"  transform=" translate(7, -271.25)" d="M 0 0 C 1.26089951 -0.00101212 1.26089951 -0.00101212 2.54727173 -0.00204468 C 48.38311324 0.05625608 91.83699633 14.43860832 124.875 47.125 C 135.12079422 57.5091555 143.09756728 69.08752617 150.60107422 81.5546875 C 151.52097761 83.07777027 152.46413968 84.58674767 153.41015625 86.09375 C 154.625 88.25 154.625 88.25 154.625 90.25 C 157.06117816 90.01476094 157.06117816 90.01476094 160.06860352 89.390625 C 174.00413059 87.39124378 174.00413059 87.39124378 180.625 90.25 C 186.8334944 97.77140852 187.24516967 108.69861248 187.50289536 118.08070374 C 187.5424594 119.52062719 187.59874144 120.96019346 187.67215347 122.39878845 C 188.1096261 131.2315662 187.6499222 139.61504912 183.23413086 147.51733398 C 175.84552803 155.2557668 163.30089193 155.18625785 153.22856808 155.58058929 C 149.26541673 155.66218907 145.31061624 155.62918852 141.34755325 155.55456543 C 138.29700466 155.49972142 135.248717 155.49229971 132.19772339 155.48828125 C 104.5919541 155.25799159 104.5919541 155.25799159 95.625 150.25 C 91.77609116 145.66805906 91.49861064 141.05714449 91.70085144 135.24139404 C 91.88996454 133.18264264 92.11833193 131.12706223 92.38865662 129.07739258 C 93.34233602 117.66845857 85.48563271 106.68286104 78.625 98.25 C 64.54982692 81.72593701 44.45851227 72.82601429 23.625 68.25 C 22.66335938 68.02441406 21.70171875 67.79882812 20.7109375 67.56640625 C -11.25208244 61.32026354 -47.01651023 67.79182333 -74.375 85.3125 C -75.72249722 86.27208135 -77.05672001 87.25065872 -78.375 88.25 C -79.035 88.7346875 -79.695 89.219375 -80.375 89.71875 C -93.97458979 100.55592311 -100.97364158 117.42173041 -103.375 134.25 C -104.76696524 152.54129318 -101.03462202 170.82027339 -89.375 185.25 C -88.82972656 185.95769531 -88.28445313 186.66539062 -87.72265625 187.39453125 C -75.67111985 202.22501016 -56.20685508 209.10350109 -38.625 214.875 C -36.83268337 215.47412795 -35.04069857 216.07424935 -33.24902344 216.67529297 C -27.63102173 218.55397865 -22.00379915 220.40396452 -16.375 222.25 C -14.54164673 222.85280396 -12.7083132 223.45566794 -10.875 224.05859375 C 4.11469651 228.98308641 19.11338426 233.88252269 34.15837097 238.63577271 C 81.92026427 253.72592507 135.50516954 271.96323067 161.625 318.25 C 161.9456543 318.81493164 162.26630859 319.37986328 162.59667969 319.96191406 C 179.69622819 350.57746932 183.42937189 389.28638359 175.625 423.25 C 175.47466309 423.93320313 175.32432617 424.61640625 175.16943359 425.3203125 C 170.86929532 444.11053248 161.79319518 462.34037147 149.625 477.25 C 149.15449219 477.83571777 148.68398437 478.42143555 148.19921875 479.02490234 C 117.2123413 517.33948135 70.6995243 536.7075021 22.5390625 541.83984375 C 14.56316851 542.50586104 6.5611397 542.49418811 -1.4375 542.5 C -2.27481659 542.50067474 -3.11213318 542.50134949 -3.974823 542.50204468 C -51.14371376 542.44197265 -97.34732144 531.27086243 -131.75 497.375 C -146.51032143 482.34065176 -167.375 455.17829307 -167.375 433.25 C -169.90881685 433.3435984 -169.90881685 433.3435984 -173.02856445 434.01171875 C -187.54056023 436.05605303 -187.54056023 436.05605303 -194.375 433.25 C -200.76646133 425.80026114 -201.23556618 414.8406124 -201.50127792 405.4170723 C -201.54189125 403.97948609 -201.59987663 402.54227939 -201.67572403 401.10612106 C -202.13055768 392.24395 -201.61797868 383.89437594 -197.07714844 376.01824951 C -188.75978623 367.49742454 -174.17411892 367.67446938 -162.98754883 367.32226562 C -159.89251886 367.28597317 -156.80025054 367.28458954 -153.70508194 367.30426025 C -150.54437648 367.31254752 -147.39040418 367.25221795 -144.2305603 367.18188477 C -115.23183128 366.75211216 -115.23183128 366.75211216 -106.375 373.25 C -100.55680811 380.9808378 -102.23520633 392.57903882 -103.08057308 401.60223103 C -104.23673393 415.65642394 -98.09435811 429.32092663 -89.30078125 440.03515625 C -69.21179595 463.13952676 -40.58698382 471.66612061 -10.8125 473.875 C -8.33406046 474.01367159 -5.85485991 474.1396045 -3.375 474.25 C -2.42496094 474.29253906 -1.47492188 474.33507813 -0.49609375 474.37890625 C 30.06541815 475.0310011 60.57584057 467.89879399 83.375 446.59765625 C 98.13865412 431.19321853 103.11540228 410.926285 102.83984375 390.15234375 C 102.18989962 369.28550399 92.41490317 353.11083463 77.6796875 338.90625 C 51.18163742 315.19838047 12.55324026 306.9552003 -20.73428345 297.62304688 C -24.22267122 296.64481632 -27.71047509 295.66452299 -31.19824219 294.68408203 C -35.84370146 293.37835579 -40.49172084 292.08236245 -45.14160156 290.79248047 C -61.86824864 286.12417394 -78.6738292 281.25150979 -94.5 274 C -95.71610962 273.44602539 -95.71610962 273.44602539 -96.95678711 272.88085938 C -130.20660857 257.31587745 -155.18200578 232.34365389 -168.24707031 197.95458984 C -169.9473075 193.12342807 -171.2364808 188.2401556 -172.375 183.25 C -172.53581055 182.59612305 -172.69662109 181.94224609 -172.86230469 181.26855469 C -178.29801896 158.37130878 -178.04882294 129.78854747 -171.375 107.25 C -171.19308105 106.59032227 -171.01116211 105.93064453 -170.82373047 105.25097656 C -161.08693589 70.28900998 -135.83691608 41.76873358 -104.6875 24.0625 C -72.41290586 6.38419495 -36.45288157 0.02640184 0 0 Z" stroke-linecap="round" />
</g>
		<g transform="matrix(1 0 0 1 2.44 627.64)"  >
<path style="stroke: none; stroke-width: 1; stroke-dasharray: none; stroke-linecap: butt; stroke-dashoffset: 0; stroke-linejoin: miter; stroke-miterlimit: 4; fill: rgb(13,152,72); fill-rule: nonzero; opacity: 1;" vector-effect="non-scaling-stroke"  transform=" translate(165.25, -216.47)" d="M 0 0 C 0.53238281 0.47179688 1.06476563 0.94359375 1.61328125 1.4296875 C 2.15339844 1.90664062 2.69351562 2.38359375 3.25 2.875 C 24.12382472 21.41849274 24.12382472 21.41849274 27.74291992 28.70361328 C 28.36013916 29.27321777 28.9773584 29.84282227 29.61328125 30.4296875 C 32.55480911 30.08493667 35.1446184 29.56300361 38 28.859375 C 57.17767254 25.29176645 57.17767254 25.29176645 64.75158691 29.63922119 C 73.6179321 38.16634191 73.48932688 55.39527917 73.84191895 66.90811157 C 73.92292779 76.33474382 73.04144557 86.05779944 66.61328125 93.4296875 C 55.31214668 99.52050915 41.50262579 98.5202671 29.05078125 97.9921875 C 28.15869587 97.96155842 27.26661049 97.93092934 26.34749222 97.8993721 C 20.18513869 97.67701345 14.06124442 97.25471167 7.921875 96.68359375 C 7.09834911 96.61615463 6.27482323 96.54871552 5.42634201 96.47923279 C -7.50854607 95.30723855 -7.50854607 95.30723855 -11.92236328 90.8948822 C -13.69011105 88.13460651 -15.0588821 85.4202972 -16.38671875 82.4296875 C -17.63201272 80.51054929 -17.63201272 80.51054929 -18.94140625 78.86328125 C -19.70710938 77.87457031 -20.4728125 76.88585938 -21.26171875 75.8671875 C -25.71255336 70.14602292 -30.40745435 64.70080932 -35.38671875 59.4296875 C -36.08152344 58.68203125 -36.77632812 57.934375 -37.4921875 57.1640625 C -64.08388334 29.45832476 -105.02437206 11.59660299 -143.38671875 10.4296875 C -144.11842285 10.40390625 -144.85012695 10.378125 -145.60400391 10.3515625 C -173.57141951 9.48485971 -200.17755395 14.05907251 -225.38671875 26.4296875 C -226.0017627 26.72568848 -226.61680664 27.02168945 -227.25048828 27.32666016 C -242.78059256 34.87754616 -256.59880399 44.89951858 -268.90771484 56.98144531 C -270.35029174 58.39401813 -271.8155463 59.7833136 -273.28125 61.171875 C -310.93193488 97.50610237 -330.904864 153.41292114 -332.49511719 204.94213867 C -333.39486688 260.86305699 -322.14541464 320.21485377 -282.37890625 362.31640625 C -280.55514477 364.25102382 -278.8825418 366.24868845 -277.19921875 368.3046875 C -263.46171538 383.95978287 -244.72681282 395.91897205 -226.38671875 405.4296875 C -225.78182617 405.74776367 -225.17693359 406.06583984 -224.55371094 406.39355469 C -204.75501599 416.67426606 -182.59392269 421.5877082 -160.38671875 422.4296875 C -159.401875 422.4709375 -158.41703125 422.5121875 -157.40234375 422.5546875 C -112.31055469 423.48923235 -69.84087579 408.5646557 -37.04248047 377.47119141 C -20.33957178 361.22191027 -7.35558234 341.46499374 3.0234375 320.671875 C 3.56206421 319.6032019 3.56206421 319.6032019 4.11157227 318.51293945 C 4.7602376 317.20438402 5.38854096 315.8854536 5.99194336 314.55541992 C 6.83203125 312.83984375 6.83203125 312.83984375 8.61328125 310.4296875 C 13.18657676 310.71421092 17.17284082 312.93553832 21.23828125 314.89453125 C 21.97461288 315.24342407 22.71094452 315.59231689 23.46958923 315.95178223 C 27.48643989 317.85835433 31.49148915 319.78946607 35.49829102 321.71704102 C 37.12110767 322.49656644 38.74407243 323.27578361 40.3671875 324.0546875 C 41.56427086 324.63010536 41.56427086 324.63010536 42.78553772 325.21714783 C 47.39955518 327.42058556 52.03539946 329.48837709 56.765625 331.4296875 C 57.76400391 331.85258057 58.76238281 332.27547363 59.79101562 332.71118164 C 61.59049941 333.4649463 63.40577215 334.18236824 65.23632812 334.85717773 C 67.578125 335.86328125 67.578125 335.86328125 70.61328125 338.4296875 C 70.53822749 342.11552423 69.12419136 345.11137396 67.61328125 348.4296875 C 67.30656494 349.18290283 66.99984863 349.93611816 66.68383789 350.7121582 C 65.74397738 352.9651518 64.72860561 355.16481454 63.67578125 357.3671875 C 63.09751587 358.57882568 63.09751587 358.57882568 62.50756836 359.81494141 C 55.52484851 374.05577925 46.62773836 387.16158077 36.61328125 399.4296875 C 35.40865234 400.93982422 35.40865234 400.93982422 34.1796875 402.48046875 C 13.66569364 427.78582081 -11.59200319 447.39123468 -40.38671875 462.4296875 C -41.08249023 462.79658691 -41.77826172 463.16348633 -42.49511719 463.54150391 C -98.23096913 492.54073946 -168.85251336 496.72535884 -228.54418945 477.98803711 C -250.2578584 470.8659537 -271.842531 460.85328663 -290.38671875 447.4296875 C -291.01175293 446.97835449 -291.63678711 446.52702148 -292.28076172 446.06201172 C -300.73377885 439.92816089 -308.73662864 433.55218519 -316.38671875 426.4296875 C -317.6954149 425.3002648 -319.00780039 424.17509991 -320.32421875 423.0546875 C -329.23773577 415.25536011 -337.08734666 406.74531972 -344.38671875 397.4296875 C -345.1653125 396.46804688 -345.94390625 395.50640625 -346.74609375 394.515625 C -394.44568662 334.51136009 -410.37163008 253.45244833 -402.38671875 178.4296875 C -395.58307768 122.80278385 -374.53112271 69.70156938 -337.38671875 27.4296875 C -336.82082031 26.75292969 -336.25492188 26.07617188 -335.671875 25.37890625 C -326.41555109 14.3796613 -315.84964104 4.0895786 -304.38671875 -4.5703125 C -303.76522949 -5.04645996 -303.14374023 -5.52260742 -302.50341797 -6.01318359 C -290.73653714 -14.98281304 -278.45084428 -22.634604 -265.38671875 -29.5703125 C -264.61279785 -29.98265137 -263.83887695 -30.39499023 -263.04150391 -30.81982422 C -181.74892738 -73.40666761 -72.91040804 -62.60940645 0 0 Z" stroke-linecap="round" />
</g>
		<g transform="matrix(1 0 0 1 -1397.29 -3.75)"  >
<path style="stroke: none; stroke-width: 1; stroke-dasharray: none; stroke-linecap: butt; stroke-dashoffset: 0; stroke-linejoin: miter; stroke-miterlimit: 4; fill: rgb(220,166,53); fill-rule: nonzero; opacity: 1;" vector-effect="non-scaling-stroke"  transform=" translate(-164.81, -266.16)" d="M 0 0 C 16.34319461 -1.80217283 32.70639113 -2.35006902 49.13612249 -2.57754292 C 55.4206908 -2.66879031 61.69954005 -2.86072099 67.98096541 -3.07506099 C 85.35047179 -3.6550929 102.71458375 -4.14064568 120.09449843 -4.21573748 C 121.76377976 -4.22299811 121.76377976 -4.22299811 123.46678394 -4.23040541 C 125.72308387 -4.23976817 127.97938417 -4.24903973 130.23568484 -4.25822071 C 131.35580818 -4.26287692 132.47593153 -4.26753312 133.629998 -4.27233043 C 134.75147854 -4.27691909 135.87295908 -4.28150775 137.02842388 -4.28623546 C 154.12641151 -4.37352774 171.1300171 -5.04460024 188.19542769 -6.07701793 C 214.25998528 -7.62928463 240.2667661 -8.58895146 266.38146284 -8.18102183 C 267.40479987 -8.16513471 268.42813689 -8.14924759 269.48248413 -8.13287904 C 330.33197684 -7.01466561 330.33197684 -7.01466561 348.41271284 8.51429067 C 365.59146752 26.8925584 365.15776542 57.7371659 364.67634013 81.16865603 C 364.63128077 83.84541908 364.62415171 86.51992892 364.62684515 89.19703899 C 364.5532785 140.06676354 364.5532785 140.06676354 349.94591287 156.15675751 C 338.89003806 165.94590204 320.02913326 165.28343099 306.25698736 164.5968946 C 282.18893707 162.92611775 282.18893707 162.92611775 274.46998861 155.69412456 C 269.26584042 147.36745926 272.90818009 135.92584974 274.80443648 127.0138329 C 275.29538704 124.93981773 275.79092848 122.86688426 276.29090193 120.79502568 C 279.77256751 105.96109292 283.60304956 83.7604518 276.41271284 69.51429067 C 266.09307069 56.95421337 244.62977995 55.92316252 229.741761 54.42871175 C 216.68172217 53.28738555 203.67734059 53.25302379 190.58014753 53.52741323 C 185.07263757 53.63974266 179.57722498 53.60995492 174.06947377 53.53466664 C 129.03999461 52.58301265 129.03999461 52.58301265 89.58498839 71.237151 C 70.32678799 92.46591762 68.54025469 125.36892065 68.66271284 152.51429067 C 68.66382692 153.98569202 68.66382692 153.98569202 68.66496351 155.48681865 C 68.78022049 181.26014942 70.7606846 214.18866594 89.62673643 233.95587335 C 107.0460078 249.15567893 140.78293968 245.2999415 162.01441649 243.93953595 C 175.91735952 242.92550969 189.701894 241.13709949 203.50201252 239.20252786 C 211.75702528 238.05435787 220.02248606 236.98936816 228.29340723 235.96269117 C 230.26071812 235.71425444 232.2269985 235.45750922 234.19211367 235.19226346 C 260.28791406 231.67535759 260.28791406 231.67535759 270.41271284 235.51429067 C 277.49880815 241.47790902 280.2630347 249.6468164 281.32520273 258.62751941 C 282.26024088 270.65334363 280.8320545 282.31839194 273.32430342 292.09072576 C 266.20040698 298.02055174 256.86137663 296.88190682 248.13665751 296.2024859 C 243.46835261 295.75581127 238.83191157 295.14134888 234.19043306 294.47456894 C 231.23159173 294.04978254 228.27021451 293.6518252 225.30675772 293.26063047 C 216.97313264 292.15276972 208.64740595 290.99408946 200.32844713 289.78100572 C 145.54345415 280.37737003 145.54345415 280.37737003 93.2225149 293.10750852 C 82.40800975 301.51376088 79.79496204 318.06057441 78.04930046 330.77859912 C 76.07753038 347.1358674 76.19778488 363.3770353 76.85825804 379.81186662 C 76.97546515 383.02119927 77.05345049 386.229181 77.11898115 389.43995748 C 76.87138614 432.33152299 76.87138614 432.33152299 91.41271284 471.51429067 C 99.43542475 476.79863814 109.3609897 474.94136292 118.31505659 473.29554067 C 120.65874067 472.80926497 123.00182002 472.32006444 125.34424666 471.82776723 C 138.41771505 469.37060858 138.41771505 469.37060858 143.41271284 471.51429067 C 152.05532973 481.2805435 152.58995704 497.10658125 151.84665754 509.5174645 C 151.02856224 517.73975283 148.96642957 525.16042814 143.41271284 531.51429067 C 122.97183312 544.45224553 90.67575776 540.03451206 67.69780234 539.22839532 C 60.46314432 539.00152827 53.27739171 539.08281264 46.04454878 539.33655629 C -11.17034557 541.30095394 -11.17034557 541.30095394 -26.58728716 531.51429067 C -33.6320808 523.38568262 -34.85261203 513.54175041 -34.93847963 503.18223844 C -34.96246107 501.02993269 -35.06120563 498.88899316 -35.16312334 496.73912892 C -35.40792755 488.45917207 -34.6001453 480.52910297 -29.83639833 473.53522573 C -24.85725594 470.43821769 -20.89071942 471.67475054 -15.317054 472.76380239 C 2.57264702 476.77060724 2.57264702 476.77060724 20.11671808 473.45491681 C 26.83180501 467.77917509 27.15849159 456.76439344 27.97065561 448.52630717 C 29.46498018 430.30944643 29.30787684 411.96948074 29.04239396 393.70983792 C 28.93111475 385.85071596 28.91621456 377.9968036 28.96968535 370.13712392 C 28.97719376 369.0214287 28.98470218 367.90573348 28.99243813 366.75622932 C 29.0081037 364.49015378 29.02399013 362.22407977 29.04009511 359.95800731 C 29.18005452 338.67408555 29.0188695 317.40047792 28.75587715 296.11824844 C 28.53687709 277.82940576 28.57489787 259.55578789 28.80089644 241.26722036 C 29.06278612 220.06410576 29.16659596 198.87004429 29.01589552 177.66553865 C 29.00028559 175.40751299 28.98488145 173.1494859 28.96968535 170.89145742 C 28.9583461 169.22469893 28.9583461 169.22469893 28.94677777 167.52426855 C 28.90434807 159.66831083 28.97695828 151.81812711 29.09118345 143.96305165 C 31.65368331 105.65317001 31.65368331 105.65317001 22.41271284 69.51429067 C 16.12239846 64.93259025 8.25613788 66.10766688 0.95341828 67.19061575 C -2.44841825 67.82222911 -5.82008203 68.54575544 -9.19982645 69.28557477 C -21.71363858 71.72324577 -21.71363858 71.72324577 -26.58728716 69.51429067 C -35.00626579 59.52278899 -35.37746276 43.5633817 -34.61323664 31.10827146 C -32.51491747 9.64493573 -20.12706649 2.55211002 0 0 Z" stroke-linecap="round" />
</g>
		<g transform="matrix(1 0 0 1 749.89 -622.89)"  >
<path style="stroke: none; stroke-width: 1; stroke-dasharray: none; stroke-linecap: butt; stroke-dashoffset: 0; stroke-linejoin: miter; stroke-miterlimit: 4; fill: rgb(172,208,55); fill-rule: nonzero; opacity: 1;" vector-effect="non-scaling-stroke"  transform=" translate(-84.58, -110.51)" d="M 0 0 C 7.5282775 0.34817316 14.22859665 3.90659288 21 7 C 22.03688965 7.45600586 23.0737793 7.91201172 24.14208984 8.38183594 C 59.38749072 23.94814502 92.19927286 47.45444139 116 78 C 117.00748515 79.2554711 118.01532077 80.510661 119.0234375 81.765625 C 148.93755445 119.43042218 165.43260583 164.84515714 169.77197266 212.52783203 C 169.96464328 214.61667869 170.23011269 216.69861809 170.51171875 218.77734375 C 170.34285156 219.51082031 170.17398438 220.24429688 170 221 C 163.58068885 221.34356877 157.21950114 217.99252888 151.375 215.625 C 150.27559082 215.18091797 149.17618164 214.73683594 148.04345703 214.27929688 C 131.69687661 207.53989656 116.36378532 199.31114589 102 189 C 100.9790625 188.27296875 99.958125 187.5459375 98.90625 186.796875 C 81.1416825 173.80069141 64.29826479 158.59350724 51 141 C 50.56880859 140.43458496 50.13761719 139.86916992 49.69335938 139.28662109 C 22.69520044 103.76421827 4.7363683 61.75873856 0.26220703 17.18920898 C -0.00439352 14.96331782 -0.41131428 12.79436107 -0.8359375 10.59375 C -1.44062642 6.71946397 -1.84469451 3.6082441 0 0 Z" stroke-linecap="round" />
</g>
		<g transform="matrix(1 0 0 1 1222.52 -12.4)"  >
<path style="stroke: none; stroke-width: 1; stroke-dasharray: none; stroke-linecap: butt; stroke-dashoffset: 0; stroke-linejoin: miter; stroke-miterlimit: 4; fill: rgb(172,208,55); fill-rule: nonzero; opacity: 1;" vector-effect="non-scaling-stroke"  transform=" translate(-85.21, -110)" d="M 0 0 C 7.48234062 0.76991117 14.16389137 4.00630909 21 7 C 22.89840346 7.79695608 24.79684019 8.59383294 26.6953125 9.390625 C 54.79406962 21.47021154 78.88160216 39.03070738 101 60 C 102.13115234 61.06734375 102.13115234 61.06734375 103.28515625 62.15625 C 108.67175961 67.38221906 113.3627299 73.11024153 118 79 C 118.50225098 79.63115723 119.00450195 80.26231445 119.52197266 80.91259766 C 127.15861074 90.5348076 134.06026723 100.24521759 140 111 C 140.43022461 111.76763672 140.86044922 112.53527344 141.30371094 113.32617188 C 157.69325975 142.75524107 167.64055413 174.46489549 171 208 C 171.13664062 209.17949219 171.27328125 210.35898438 171.4140625 211.57421875 C 171.48367187 212.60160156 171.55328125 213.62898438 171.625 214.6875 C 171.76808594 216.27111328 171.76808594 216.27111328 171.9140625 217.88671875 C 171.46160156 218.93279297 171.46160156 218.93279297 171 220 C 141.52686165 216.99810628 107.62662092 194.20357142 86 175 C 85.16726562 174.26394531 84.33453125 173.52789063 83.4765625 172.76953125 C 81.80218983 171.27289968 80.13530733 169.76784003 78.4765625 168.25390625 C 76.79747795 166.7257804 75.10419177 165.21314142 73.3984375 163.71484375 C 68.1593497 159.10096431 63.45793249 154.36479242 59 149 C 58.26394531 148.15179687 57.52789063 147.30359375 56.76953125 146.4296875 C 27.79651628 112.62015969 9.49569395 71.80244215 2 28 C 1.87012695 27.24734863 1.74025391 26.49469727 1.60644531 25.71923828 C 1.08819828 22.61193362 0.65904246 19.52229932 0.3515625 16.38671875 C 0.08431327 13.81221779 -0.31100079 11.47226129 -0.8515625 8.95703125 C -1.82767668 2.57324451 -1.82767668 2.57324451 0 0 Z" stroke-linecap="round" />
</g>
		<g transform="matrix(1 0 0 1 1204.18 -621.39)"  >
<path style="stroke: none; stroke-width: 1; stroke-dasharray: none; stroke-linecap: butt; stroke-dashoffset: 0; stroke-linejoin: miter; stroke-miterlimit: 4; fill: rgb(172,208,55); fill-rule: nonzero; opacity: 1;" vector-effect="non-scaling-stroke"  transform=" translate(79.13, -115.01)" d="M 0 0 C 5.19500612 54.0127842 -19.25363999 113.33994305 -52.5 154.75 C -57.48365911 160.66864648 -62.66884591 166.39432367 -68 172 C -68.53786133 172.56654297 -69.07572266 173.13308594 -69.62988281 173.71679688 C -77.85261392 182.31479994 -86.4428303 189.92461582 -96 197 C -96.55091309 197.41701172 -97.10182617 197.83402344 -97.66943359 198.26367188 C -110.55827243 208.01492085 -124.50385344 216.01155949 -139.0625 223 C -140.18531372 223.5424939 -140.18531372 223.5424939 -141.33081055 224.09594727 C -143.53306698 225.12402467 -145.75434707 226.07085484 -148 227 C -148.9082251 227.40968018 -149.8164502 227.81936035 -150.75219727 228.24145508 C -155.33738154 230.05611071 -155.33738154 230.05611071 -158 230 C -159.06004568 226.39890618 -159.08444519 224.36207643 -158.8125 220.6875 C -158.7707666 219.68364258 -158.7290332 218.67978516 -158.68603516 217.64550781 C -158.52361575 214.42210719 -158.27562196 211.21558951 -158 208 C -157.92023926 207.01273926 -157.84047852 206.02547852 -157.75830078 205.00830078 C -154.25027634 164.87138391 -140.86017966 125.28434673 -118 92 C -117.60248535 91.41009277 -117.2049707 90.82018555 -116.79541016 90.21240234 C -110.50391428 80.90807745 -103.45161013 72.39181328 -96 64 C -95.3184082 63.22366211 -95.3184082 63.22366211 -94.62304688 62.43164062 C -90.09713898 57.27917111 -85.54450096 52.31552852 -80.27734375 47.9140625 C -78.52986767 46.44534333 -76.82047902 44.93120956 -75.12890625 43.3984375 C -58.81773355 28.72481353 -23.64890026 0 0 0 Z" stroke-linecap="round" />
</g>
		<g transform="matrix(1 0 0 1 1335.31 -452.22)"  >
<path style="stroke: none; stroke-width: 1; stroke-dasharray: none; stroke-linecap: butt; stroke-dashoffset: 0; stroke-linejoin: miter; stroke-miterlimit: 4; fill: rgb(172,208,55); fill-rule: nonzero; opacity: 1;" vector-effect="non-scaling-stroke"  transform=" translate(66.13, -56.44)" d="M 0 0 C 0.69309265 -0.00067474 1.3861853 -0.00134949 2.10028076 -0.00204468 C 20.20776885 0.02564261 37.87851406 1.98950478 55.625 5.625 C 56.59131348 5.80957764 57.55762695 5.99415527 58.55322266 6.18432617 C 61.171875 6.7734375 61.171875 6.7734375 64.875 8.25 C 64.76897038 12.82558606 59.80133062 17.36701167 56.9375 20.8125 C 56.06677856 21.87041748 56.06677856 21.87041748 55.1784668 22.94970703 C 49.9511402 29.25276505 44.52860811 35.32596519 38.875 41.25 C 38.04355469 42.12269531 37.21210938 42.99539063 36.35546875 43.89453125 C 30.55646594 49.83965067 24.39857844 55.11929372 17.875 60.25 C 16.90046875 61.04148437 15.9259375 61.83296875 14.921875 62.6484375 C -35.85217004 103.08907136 -101.36843423 118.21937818 -165.125 111.25 C -169.32870975 110.68929747 -173.50837684 110.03297932 -177.6875 109.3125 C -178.60764893 109.15491211 -179.52779785 108.99732422 -180.47583008 108.83496094 C -183.04245541 108.36353514 -185.58163376 107.83355155 -188.125 107.25 C -189.02202637 107.04487793 -189.91905273 106.83975586 -190.84326172 106.62841797 C -193.11688259 106.01110019 -195.10217611 105.45920856 -197.125 104.25 C -196.79486648 100.22897374 -193.78759491 97.32879871 -191.25 94.3125 C -190.445625 93.35472656 -189.64125 92.39695312 -188.8125 91.41015625 C -188.37808594 90.89984863 -187.94367187 90.38954102 -187.49609375 89.86376953 C -186.07111959 88.18658307 -184.66025961 86.49816416 -183.25 84.80859375 C -173.76389097 73.51123126 -163.72442528 63.42084869 -152.125 54.25 C -150.94357422 53.26773438 -150.94357422 53.26773438 -149.73828125 52.265625 C -137.86572275 42.45359318 -124.74353366 34.39256649 -111.125 27.25 C -110.36010254 26.8478125 -109.59520508 26.445625 -108.80712891 26.03125 C -75.19439656 8.61603146 -37.77292276 0.03349569 0 0 Z" stroke-linecap="round" />
</g>
		<g transform="matrix(1 0 0 1 1343.31 -189.01)"  >
<path style="stroke: none; stroke-width: 1; stroke-dasharray: none; stroke-linecap: butt; stroke-dashoffset: 0; stroke-linejoin: miter; stroke-miterlimit: 4; fill: rgb(172,208,55); fill-rule: nonzero; opacity: 1;" vector-effect="non-scaling-stroke"  transform=" translate(106.37, 9.25)" d="M 0 0 C 21.15247036 19.35238248 21.15247036 19.35238248 27.6328125 29.35546875 C 26.6328125 31.35546875 26.6328125 31.35546875 24.83300781 32.06982422 C 24.05022461 32.28525879 23.26744141 32.50069336 22.4609375 32.72265625 C 21.57962158 32.96661133 20.69830566 33.21056641 19.7902832 33.46191406 C 18.83081787 33.71553711 17.87135254 33.96916016 16.8828125 34.23046875 C 15.89434326 34.4944043 14.90587402 34.75833984 13.88745117 35.03027344 C 3.88740083 37.64098695 -6.15975698 39.74132674 -16.3671875 41.35546875 C -17.11403809 41.4740625 -17.86088867 41.59265625 -18.63037109 41.71484375 C -80.1386013 50.9472607 -144.53261659 32.98724467 -194.49023438 -3.23583984 C -199.66357849 -7.11853958 -204.51476198 -11.37331547 -209.3671875 -15.64453125 C -210.04523437 -16.21171875 -210.72328125 -16.77890625 -211.421875 -17.36328125 C -221.59065536 -25.91727675 -233.42515758 -36.19500274 -240.3671875 -47.64453125 C -239.3671875 -49.64453125 -239.3671875 -49.64453125 -237.64331055 -50.35888672 C -236.89605713 -50.57432129 -236.14880371 -50.78975586 -235.37890625 -51.01171875 C -234.53763184 -51.25567383 -233.69635742 -51.49962891 -232.82958984 -51.75097656 C -231.91387207 -52.00459961 -230.9981543 -52.25822266 -230.0546875 -52.51953125 C -229.11061035 -52.7834668 -228.1665332 -53.04740234 -227.19384766 -53.31933594 C -217.67144615 -55.92312999 -208.10787475 -58.04244453 -198.3671875 -59.64453125 C -197.65046875 -59.763125 -196.93375 -59.88171875 -196.1953125 -60.00390625 C -126.04610253 -70.91600558 -52.43300268 -46.99492689 0 0 Z" stroke-linecap="round" />
</g>
		<g transform="matrix(1 0 0 1 601.81 -404.89)"  >
<path style="stroke: none; stroke-width: 1; stroke-dasharray: none; stroke-linecap: butt; stroke-dashoffset: 0; stroke-linejoin: miter; stroke-miterlimit: 4; fill: rgb(172,208,55); fill-rule: nonzero; opacity: 1;" vector-effect="non-scaling-stroke"  transform=" translate(105.63, 8.04)" d="M 0 0 C 0.82371094 0.7528125 1.64742187 1.505625 2.49609375 2.28125 C 4.65010509 4.23365436 6.84527726 6.12027359 9.0625 8 C 12.36634016 10.88010114 15.24134667 13.96939571 18.06640625 17.31640625 C 20.73859671 20.45031429 23.56216194 23.44555787 26.37109375 26.45703125 C 27.875 28.4375 27.875 28.4375 27.875 31.4375 C 24.94370299 32.6069004 22.1530245 33.52743158 19.125 34.375 C 18.22628174 34.63442383 17.32756348 34.89384766 16.40161133 35.16113281 C -44.75202643 52.34911215 -110.0822156 45.26260067 -166.125 15.4375 C -166.76856445 15.10169922 -167.41212891 14.76589844 -168.07519531 14.41992188 C -194.38645343 0.62973488 -221.40805351 -20.57759494 -239.125 -44.5625 C -239.125 -45.5525 -239.125 -46.5425 -239.125 -47.5625 C -236.31614844 -48.72281566 -233.66301914 -49.61369357 -230.75 -50.4375 C -229.8616748 -50.6943457 -228.97334961 -50.95119141 -228.05810547 -51.21582031 C -148.68269229 -73.3563053 -61.68269071 -55.43043613 0 0 Z" stroke-linecap="round" />
</g>
		<g transform="matrix(1 0 0 1 951.53 -694.9)"  >
<path style="stroke: none; stroke-width: 1; stroke-dasharray: none; stroke-linecap: butt; stroke-dashoffset: 0; stroke-linejoin: miter; stroke-miterlimit: 4; fill: rgb(172,208,55); fill-rule: nonzero; opacity: 1;" vector-effect="non-scaling-stroke"  transform=" translate(-5.22, -139.5)" d="M 0 0 C 4.22117844 3.49979261 7.12128223 7.78793914 10.0625 12.375 C 10.76596558 13.47062256 10.76596558 13.47062256 11.48364258 14.58837891 C 46.33551669 70.00810005 58.56864047 136.95214043 44 201 C 38.8325934 222.04189824 31.10960686 241.86645378 21 261 C 20.17822266 262.5778125 20.17822266 262.5778125 19.33984375 264.1875 C 17.94015983 266.82219914 16.4901413 269.41566923 15 272 C 14.35417969 273.18916016 14.35417969 273.18916016 13.6953125 274.40234375 C 12.4375 276.5 12.4375 276.5 10 279 C 5.4176505 275.38072056 2.49904735 270.53438438 -0.5625 265.625 C -1.07989746 264.79556885 -1.59729492 263.9661377 -2.13037109 263.11157227 C -37.35906885 205.74383643 -48.0083996 139.80627038 -32.91015625 74.1875 C -27.23069545 50.65935126 -17.60653188 17.60653188 0 0 Z" stroke-linecap="round" />
</g>
		<g transform="matrix(1 0 0 1 538.81 -607.25)"  >
<path style="stroke: none; stroke-width: 1; stroke-dasharray: none; stroke-linecap: butt; stroke-dashoffset: 0; stroke-linejoin: miter; stroke-miterlimit: 4; fill: rgb(13,152,72); fill-rule: nonzero; opacity: 1;" vector-effect="non-scaling-stroke"  transform=" translate(-76.5, -52.15)" d="M 0 0 C 32.46305008 -4.71632992 71.5018618 11.90103003 97.10498047 30.53173828 C 121.59292798 48.97967055 141.80162451 73.22055719 153 102 C 153 102.99 153 103.98 153 105 C 150.03330356 105.17697213 147.32810481 105.13409984 144.375 104.9375 C 143.0281311 104.85459717 143.0281311 104.85459717 141.65405273 104.77001953 C 105.70756707 102.17642415 72.14039696 88.80135759 45 65 C 44.16210938 64.28328125 43.32421875 63.5665625 42.4609375 62.828125 C 24.56034103 47.19974047 7.08526564 25.08904747 0 2 C 0 1.34 0 0.68 0 0 Z" stroke-linecap="round" />
</g>
		<g transform="matrix(1 0 0 1 1504.81 -325.84)"  >
<path style="stroke: none; stroke-width: 1; stroke-dasharray: none; stroke-linecap: butt; stroke-dashoffset: 0; stroke-linejoin: miter; stroke-miterlimit: 4; fill: rgb(13,152,72); fill-rule: nonzero; opacity: 1;" vector-effect="non-scaling-stroke"  transform=" translate(92.5, -3.56)" d="M 0 0 C -1.87795229 5.63385687 -8.99965275 8.11603637 -14 11 C -15.13050781 11.66644531 -16.26101562 12.33289063 -17.42578125 13.01953125 C -54.22101908 34.104676 -99.11954881 37.99948575 -139.76953125 27.46875 C -177.57937345 17.13093983 -177.57937345 17.13093983 -185 6 C -170.44334816 -9.57878962 -143.10674949 -17.55014561 -123 -22 C -122.34257812 -22.14953125 -121.68515625 -22.2990625 -121.0078125 -22.453125 C -82.33016811 -30.91842075 -32.29660098 -24.39826975 0 0 Z" stroke-linecap="round" />
</g>
		<g transform="matrix(1 0 0 1 1123.88 -817.4)"  >
<path style="stroke: none; stroke-width: 1; stroke-dasharray: none; stroke-linecap: butt; stroke-dashoffset: 0; stroke-linejoin: miter; stroke-miterlimit: 4; fill: rgb(13,152,72); fill-rule: nonzero; opacity: 1;" vector-effect="non-scaling-stroke"  transform=" translate(25.43, -89)" d="M 0 0 C 2.1820305 2.1820305 2.4771926 3.12902022 3.21875 6.04296875 C 3.42798096 6.86079834 3.63721191 7.67862793 3.8527832 8.52124023 C 14.57813844 52.70517253 9.26573219 98.42912315 -14.5 137.625 C -18.81902025 144.53288695 -23.57347039 150.91335587 -29 157 C -30.12728516 158.28970703 -30.12728516 158.28970703 -31.27734375 159.60546875 C -43.94218907 173.9156615 -43.94218907 173.9156615 -50 178 C -50.66 178 -51.32 178 -52 178 C -52.95473223 175.10214289 -53.76261967 172.26730423 -54.5 169.3125 C -54.72139648 168.43762939 -54.94279297 167.56275879 -55.17089844 166.66137695 C -61.95906068 139.25404582 -61.59890628 110.22022273 -54 83 C -53.77747559 82.1941748 -53.55495117 81.38834961 -53.32568359 80.55810547 C -44.938966 51.08803273 -26.21300819 17.4753388 0 0 Z" stroke-linecap="round" />
</g>
		<g transform="matrix(1 0 0 1 1384.65 -626.29)"  >
<path style="stroke: none; stroke-width: 1; stroke-dasharray: none; stroke-linecap: butt; stroke-dashoffset: 0; stroke-linejoin: miter; stroke-miterlimit: 4; fill: rgb(13,152,72); fill-rule: nonzero; opacity: 1;" vector-effect="non-scaling-stroke"  transform=" translate(69.66, -55.11)" d="M 0 0 C 0.94271791 2.2140421 1.11814802 3.54925042 0.50610352 5.88427734 C 0.21662842 6.5283252 -0.07284668 7.17237305 -0.37109375 7.8359375 C -0.85521729 8.92696777 -0.85521729 8.92696777 -1.34912109 10.04003906 C -1.88786865 11.19584473 -1.88786865 11.19584473 -2.4375 12.375 C -2.80439941 13.17647461 -3.17129883 13.97794922 -3.54931641 14.80371094 C -11.73445635 32.39178846 -22.18986537 47.7111745 -35.66162109 61.61474609 C -36.81571576 62.80926144 -37.95076858 64.02212082 -39.08203125 65.23828125 C -63.36802446 90.75135622 -102.0234579 108.3418979 -137.14453125 110.3515625 C -138.55798828 110.17753906 -138.55798828 110.17753906 -140 110 C -142.03156312 99.30214863 -125.87245731 77.704404 -120 69 C -117.16014176 65.18071059 -114.14789197 61.56797461 -111 58 C -110.24589844 57.13632812 -109.49179688 56.27265625 -108.71484375 55.3828125 C -106.50749451 52.89149895 -104.26357571 50.44022499 -102 48 C -101.42378906 47.35804688 -100.84757812 46.71609375 -100.25390625 46.0546875 C -74.79697207 18.95354153 -38.6165677 5.46874577 -2.67578125 -0.12890625 C -1.35126953 -0.06509766 -1.35126953 -0.06509766 0 0 Z" stroke-linecap="round" />
</g>
		<g transform="matrix(1 0 0 1 801.28 -796.4)"  >
<path style="stroke: none; stroke-width: 1; stroke-dasharray: none; stroke-linecap: butt; stroke-dashoffset: 0; stroke-linejoin: miter; stroke-miterlimit: 4; fill: rgb(13,152,72); fill-rule: nonzero; opacity: 1;" vector-effect="non-scaling-stroke"  transform=" translate(-30.98, -84)" d="M 0 0 C 18.43742968 5.40336306 34.62234697 32.25862801 44 48 C 44.3412793 48.56734863 44.68255859 49.13469727 45.03417969 49.71923828 C 59.26272583 73.73076089 66.21764346 102.23706775 66.1875 130.0625 C 66.18669434 130.8661499 66.18588867 131.6697998 66.18505859 132.49780273 C 66.10621956 140.41957992 65.36649407 148.215813 64.26904297 156.05712891 C 64.02201612 157.84101242 63.80819496 159.62941176 63.59765625 161.41796875 C 63.1875 164.25 63.1875 164.25 62 168 C 57.51293403 167.08362737 54.52536033 164.06753921 51.3125 161 C 50.78994629 160.50870605 50.26739258 160.01741211 49.72900391 159.51123047 C 48.1452878 158.01504438 46.57266372 156.50778568 45 155 C 43.68708984 153.76636719 43.68708984 153.76636719 42.34765625 152.5078125 C 12.4456072 123.6922518 -3.44981657 81.62881792 -4.23168945 40.53881836 C -4.30587886 30.25221018 -3.44421028 20.1765246 -2 10 C -1.855625 8.87335938 -1.71125 7.74671875 -1.5625 6.5859375 C -1.125 3.75 -1.125 3.75 0 0 Z" stroke-linecap="round" />
</g>
		<g transform="matrix(1 0 0 1 1403.81 -18.49)"  >
<path style="stroke: none; stroke-width: 1; stroke-dasharray: none; stroke-linecap: butt; stroke-dashoffset: 0; stroke-linejoin: miter; stroke-miterlimit: 4; fill: rgb(13,152,72); fill-rule: nonzero; opacity: 1;" vector-effect="non-scaling-stroke"  transform=" translate(-73.5, -49.91)" d="M 0 0 C 29.4309178 -4.82629199 67.17193536 11.72211365 90.53515625 28.4765625 C 97.37977358 33.56361796 103.81134499 39.13706368 110 45 C 111.43472656 46.33804688 111.43472656 46.33804688 112.8984375 47.703125 C 127.35385262 61.45738822 139.87684205 79.27585334 147 98 C 147 98.66 147 99.32 147 100 C 115.4873469 104.22132113 78.23283869 87.79914481 53.52246094 69.58520508 C 49.2293363 66.29906876 45.17838092 62.76451838 41.23046875 59.07421875 C 39.18839681 57.17519913 37.08548418 55.40162345 34.9375 53.625 C 29.97617155 49.29130948 26.03290406 44.18417752 22 39 C 20.88431641 37.6078125 20.88431641 37.6078125 19.74609375 36.1875 C 13.56866014 28.28038498 8.66484821 19.86476138 4 11 C 3.62053223 10.28779297 3.24106445 9.57558594 2.85009766 8.84179688 C 2.48319824 8.13603516 2.11629883 7.43027344 1.73828125 6.703125 C 1.40481689 6.06536133 1.07135254 5.42759766 0.7277832 4.77050781 C 0 3 0 3 0 0 Z" stroke-linecap="round" />
</g>
</g>
</g>
</svg>